mtllib 1.mtl
o 1
v 5.79122257 7.02085781 0.05823904
v 5.76069546 7.05200195 0.05823904
v 5.76617956 7.30201244 -0.20497483
v 5.39951992 7.30201244 -0.46583870
v 6.01541567 7.30201244 -0.46583870
v 5.87478542 7.30201244 -0.46583870
v 5.76617956 7.30201244 -0.46583870
v 6.01541567 3.71121502 -0.46583864
v 5.39951992 6.77923059 -0.46583873
v 5.52352238 6.77923059 -0.46583876
v 5.52395248 3.71121502 -0.46583876
v 5.65502548 7.02602577 0.05823904
v 5.66323996 7.02085781 0.05823904
v 5.65612602 7.02344179 0.05823904
v 5.65913296 7.02155018 0.05823904
v 5.66322708 7.05200195 0.05823904
v 5.65502548 7.04667711 0.05823904
v 5.65912628 7.05128860 0.05823904
v 5.65612459 7.04933929 0.05823904
v 5.39951992 7.29668760 -0.20497483
v 5.40772152 7.30201244 -0.20497485
v 5.40772152 7.30201244 -0.20497485
v 5.39951992 7.30201244 -0.21181776
v 5.40061903 7.29934978 -0.20497483
v 5.40362072 7.30129910 -0.20497483
v 5.40362072 7.30129910 -0.20497483
v 5.40773439 6.77923059 -0.20497486
v 5.39951992 6.78439856 -0.20497485
v 5.39951992 6.78439856 -0.20497485
v 5.39951992 6.77923059 -0.21181779
v 5.40362740 6.77992296 -0.20497486
v 5.40062046 6.78181458 -0.20497486
v 5.40062046 6.78181458 -0.20497486
v 5.75042009 7.02085781 0.05823904
v 5.76069546 7.01049566 0.05823913
v 5.76925659 7.02085781 0.05823904
v 5.76069546 7.02941895 0.05823904
v 5.75555801 7.01946878 0.05823905
v 5.75931931 7.01567602 0.05823908
v 5.52352381 6.76886892 -0.20497487
v 5.51324701 6.77923059 -0.20497498
v 5.51324701 6.77923059 -0.20497498
v 5.52352238 6.77923059 -0.21353586
v 5.52214622 6.77404976 -0.20497489
v 5.51838493 6.77784252 -0.20497492
v 5.51838493 6.77784252 -0.20497492
v 5.79122257 7.04484749 0.05823904
v 5.78440809 7.05200195 0.05823910
v 5.79030895 7.04842472 0.05823905
v 5.78781462 7.05104351 0.05823907
v 6.00860119 7.30201244 -0.20497483
v 6.01541567 7.29485798 -0.20497473
v 6.01541567 7.30201244 -0.21077241
v 6.01266432 7.30201244 -0.21007809
v 6.01200867 7.30105400 -0.20497482
v 6.01450348 7.29843521 -0.20497477
v 5.78444338 4.06556368 0.05823904
v 5.79122257 4.07421923 0.05823898
v 5.78783321 4.06672335 0.05823903
v 5.79031467 4.06989145 0.05823901
v 5.76069546 4.07411623 0.05823904
v 5.76755476 4.06556368 0.05823908
v 5.76161385 4.06983995 0.05823905
v 5.76412439 4.06670952 0.05823906
v 6.01541567 3.71987033 -0.20497476
v 6.00863600 3.71121502 -0.20497470
v 6.00863600 3.71121502 -0.20497470
v 6.01541567 3.71121502 -0.21101947
v 6.01450729 3.71554279 -0.20497474
v 6.01202583 3.71237493 -0.20497473
v 6.01202583 3.71237493 -0.20497473
v 5.53081131 3.71121502 -0.20497487
v 5.52395058 3.71976686 -0.20497477
v 5.52395058 3.71976686 -0.20497477
v 5.52395201 3.71121502 -0.21101959
v 5.52738190 3.71236062 -0.20497486
v 5.52487040 3.71549082 -0.20497483
v 5.52487040 3.71549082 -0.20497483
vt 0.37500000 0.75000000
vt 0.62500000 0.80603445
vt 0.62500000 0.80603445
vt 0.62500000 1.00000000
vt 0.37500000 0.75000000
vt 0.62500000 0.75000000
vt 0.62500000 0.80603445
vt 0.37500000 0.75000000
vt 0.37500000 1.00000000
vt 0.37500000 0.80603445
vt 0.37500000 0.80603445
vt 0.41648430 1.00000000
vt 0.37500000 0.98492217
vt 0.39564931 0.99932665
vt 0.37685260 0.99324363
vt 0.62500006 0.98494571
vt 0.58225417 1.00000000
vt 0.62309110 0.99273682
vt 0.60372841 0.99932766
vt 0.62245345 1.00000000
vt 0.62500000 0.99566144
vt 0.62695587 1.00000000
vt 0.62500000 1.00000000
vt 0.62392694 1.00000000
vt 0.62500000 0.99810737
vt 0.62548625 1.00000000
vt 0.37500000 0.98715121
vt 0.37500000 1.00794506
vt 0.37747145 1.00000000
vt 0.37500000 1.00000000
vt 0.37500000 0.99461436
vt 0.37500003 1.00223422
vt 0.37604278 0.99999994
vt 0.37500000 0.82489568
vt 0.37500000 0.80392683
vt 0.37500000 0.79031992
vt 0.44372189 0.80603445
vt 0.37500000 0.81430787
vt 0.37500000 0.80545890
vt 0.37500003 0.80603445
vt 0.37500000 0.82210726
vt 0.37500003 0.80603445
vt 0.37500000 0.80603445
vt 0.37499997 0.80603445
vt 0.37499997 0.80603439
vt 0.37500000 0.81304270
vt 0.56756973 0.75000000
vt 0.62500000 0.76250839
vt 0.59562016 0.75055903
vt 0.62253875 0.75607747
vt 0.38183534 0.75153202
vt 0.37510434 0.74979824
vt 0.37500000 0.75000000
vt 0.37989080 0.75000000
vt 0.37845263 0.75069112
vt 0.37560356 0.74994797
vt 0.37500000 0.76244366
vt 0.37500000 0.75000000
vt 0.37500000 0.75625730
vt 0.37499928 0.75055540
vt 0.37500000 0.80602837
vt 0.37500000 0.79344380
vt 0.37500000 0.80546951
vt 0.37500000 0.79972303
vt 0.37500024 0.74999952
vt 0.37499031 0.75000018
vt 0.37500000 0.75077307
vt 0.37500000 0.75000000
vt 0.37500083 0.74999982
vt 0.37499839 0.75000000
vt 0.37500000 0.75035542
vt 0.37500000 0.80525237
vt 0.37500000 0.80659628
vt 0.37500000 0.80603445
vt 0.37500000 0.80603445
vt 0.37499997 0.80567783
vt 0.37500003 0.80616915
vt 0.37500003 0.80603439
vn 0.41928011 0.00000000 0.90785688
vn 0.00000000 0.39449853 0.91889662
vn 0.00000000 0.92871100 0.37080440
vn -0.57735026 0.57735026 -0.57735026
vn 0.57741696 0.57731688 -0.57731688
vn 0.00000000 0.70710683 -0.70710683
vn 0.00000000 0.70710683 -0.70710683
vn 0.57735026 -0.57735026 -0.57735026
vn -0.57728356 -0.57738358 -0.57738358
vn -0.57728356 -0.57738358 -0.57738358
vn -0.57728356 -0.57738358 -0.57738358
vn -0.39871120 -0.05500154 0.91542572
vn -0.02119986 -0.40719739 0.91309410
vn -0.28309321 -0.23649433 0.92947769
vn -0.11789445 -0.36438283 0.92375648
vn -0.02159958 0.39949220 0.91648203
vn -0.39820239 0.05230031 0.91580546
vn -0.11969953 0.35649860 0.92659634
vn -0.28461120 0.22880900 0.93093657
vn -0.88564879 0.14549159 0.44097453
vn -0.06260308 0.91064477 0.40842009
vn -0.06260308 0.91064477 0.40842009
vn -0.70280468 0.70710474 0.07790052
vn -0.64110845 0.50940675 0.57400757
vn -0.28770816 0.79272246 0.53741527
vn -0.28770816 0.79272246 0.53741527
vn -0.06140032 -0.91410482 0.40080211
vn -0.88531232 -0.14980209 0.44020614
vn -0.88531232 -0.14980209 0.44020614
vn -0.70280802 -0.70730811 0.07600087
vn -0.28269696 -0.79969144 0.52969432
vn -0.63653105 -0.51962537 0.56992781
vn -0.63653105 -0.51962537 0.56992781
vn -0.05799657 -0.33748004 0.93954444
vn -0.34110957 -0.05810163 0.93822628
vn 0.00000000 0.00000000 1.00000000
vn 0.00000000 0.00000000 1.00000000
vn -0.17630084 -0.28490138 0.94220448
vn -0.28659034 -0.17589407 0.94176823
vn -0.93241471 -0.06440102 0.35560560
vn -0.06580178 -0.93062514 0.36000973
vn -0.06580178 -0.93062514 0.36000973
vn -0.70286304 -0.70286304 -0.10939424
vn -0.86130571 -0.42870286 0.27270183
vn -0.43531823 -0.85743594 0.27441150
vn -0.43531823 -0.85743594 0.27441150
vn 0.42580026 0.03340002 0.90420055
vn 0.03780177 0.40271884 0.91454279
vn 0.35159022 0.17169523 0.92027444
vn 0.18599436 0.33168992 0.92487186
vn 0.16139354 0.87996477 0.44678211
vn 0.89336538 0.15599395 0.42138368
vn 0.73082054 0.67251891 0.11670329
vn 0.25230795 0.95623016 0.14820468
vn 0.47888753 0.64888310 0.59128463
vn 0.59399199 0.54699260 0.58989209
vn 0.04069796 -0.32408372 0.94515258
vn 0.42269912 -0.02219995 0.90599817
vn 0.18970786 -0.26091081 0.94653922
vn 0.34670046 -0.12800017 0.92920119
vn -0.41041046 -0.02250057 0.91162324
vn -0.03869892 -0.32339102 0.94547373
vn -0.33600315 -0.12810120 0.93310875
vn -0.18270686 -0.26010978 0.94813561
vn 0.90901697 -0.07580142 0.40980765
vn 0.10189331 -0.86644310 0.48876789
vn 0.10189331 -0.86644310 0.48876789
vn 0.70410615 -0.70040607 0.11690102
vn 0.73860139 -0.31730059 0.59480107
vn 0.41960433 -0.64890665 0.63470656
vn 0.41960433 -0.64890665 0.63470656
vn -0.09989671 -0.86627150 0.48948389
vn -0.90416992 -0.07639746 0.42028603
vn -0.90416992 -0.07639746 0.42028603
vn -0.70385736 -0.70065755 0.11689292
vn -0.41269317 -0.65148920 0.63658947
vn -0.73202872 -0.32041258 0.60122359
vn -0.73202872 -0.32041258 0.60122359
usemtl 1_material
f 6/6/6 5/5/5 8/8/8
f 8/8/8 11/11/11 10/10/10
f 10/10/10 9/9/9 4/4/4
f 7/7/7 6/6/6 8/8/8
f 10/10/10 4/4/4 7/7/7
f 8/8/8 10/10/10 7/7/7
f 20/20/20 24/24/24 23/23/23
f 24/24/24 26/26/26 23/23/23
f 26/26/26 22/22/22 23/23/23
f 27/27/27 31/31/31 30/30/30
f 31/31/31 32/32/32 30/30/30
f 32/32/32 28/28/28 30/30/30
f 20/20/20 17/17/17 19/19/19
f 20/20/20 19/19/19 24/24/24
f 24/24/24 19/19/19 18/18/18
f 24/24/24 18/18/18 25/25/25
f 25/25/25 18/18/18 16/16/16
f 25/25/25 16/16/16 21/21/21
f 12/12/12 29/29/29 33/33/33
f 12/12/12 33/33/33 14/14/14
f 14/14/14 33/33/33 31/31/31
f 14/14/14 31/31/31 15/15/15
f 15/15/15 31/31/31 27/27/27
f 15/15/15 27/27/27 13/13/13
f 12/12/12 17/17/17 20/20/20
f 12/12/12 20/20/20 29/29/29
f 16/16/16 2/2/2 3/3/3
f 16/16/16 3/3/3 21/21/21
f 4/4/4 23/23/23 21/21/21
f 21/21/21 3/3/3 7/7/7
f 21/21/21 7/7/7 4/4/4
f 9/9/9 30/30/30 29/29/29
f 29/29/29 20/20/20 23/23/23
f 23/23/23 4/4/4 9/9/9
f 29/29/29 23/23/23 9/9/9
f 37/37/37 34/34/34 38/38/38
f 39/39/39 35/35/35 36/36/36
f 37/37/37 38/38/38 39/39/39
f 39/39/39 36/36/36 37/37/37
f 40/40/40 44/44/44 43/43/43
f 44/44/44 45/45/45 43/43/43
f 45/45/45 42/42/42 43/43/43
f 34/34/34 41/41/41 46/46/46
f 34/34/34 46/46/46 38/38/38
f 38/38/38 46/46/46 44/44/44
f 38/38/38 44/44/44 39/39/39
f 39/39/39 44/44/44 40/40/40
f 39/39/39 40/40/40 35/35/35
f 34/34/34 13/13/13 27/27/27
f 34/34/34 27/27/27 41/41/41
f 13/13/13 34/34/34 37/37/37
f 37/37/37 2/2/2 16/16/16
f 16/16/16 18/18/18 19/19/19
f 19/19/19 17/17/17 12/12/12
f 12/12/12 14/14/14 15/15/15
f 15/15/15 13/13/13 37/37/37
f 37/37/37 16/16/16 19/19/19
f 19/19/19 12/12/12 15/15/15
f 37/37/37 19/19/19 15/15/15
f 10/10/10 43/43/43 41/41/41
f 41/41/41 27/27/27 30/30/30
f 30/30/30 9/9/9 10/10/10
f 41/41/41 30/30/30 10/10/10
f 54/54/54 51/51/51 55/55/55
f 56/56/56 52/52/52 53/53/53
f 54/54/54 55/55/55 56/56/56
f 56/56/56 53/53/53 54/54/54
f 47/47/47 52/52/52 56/56/56
f 47/47/47 56/56/56 49/49/49
f 49/49/49 56/56/56 55/55/55
f 49/49/49 55/55/55 50/50/50
f 50/50/50 55/55/55 51/51/51
f 50/50/50 51/51/51 48/48/48
f 36/36/36 1/1/1 47/47/47
f 47/47/47 49/49/49 50/50/50
f 50/50/50 48/48/48 2/2/2
f 2/2/2 37/37/37 36/36/36
f 36/36/36 47/47/47 50/50/50
f 50/50/50 2/2/2 36/36/36
f 2/2/2 48/48/48 51/51/51
f 2/2/2 51/51/51 3/3/3
f 7/7/7 3/3/3 51/51/51
f 51/51/51 54/54/54 6/6/6
f 51/51/51 6/6/6 7/7/7
f 54/54/54 53/53/53 5/5/5
f 54/54/54 5/5/5 6/6/6
f 65/65/65 69/69/69 68/68/68
f 69/69/69 70/70/70 68/68/68
f 70/70/70 66/66/66 68/68/68
f 72/72/72 76/76/76 75/75/75
f 76/76/76 77/77/77 75/75/75
f 77/77/77 73/73/73 75/75/75
f 57/57/57 67/67/67 71/71/71
f 57/57/57 71/71/71 59/59/59
f 59/59/59 71/71/71 69/69/69
f 59/59/59 69/69/69 60/60/60
f 60/60/60 69/69/69 65/65/65
f 60/60/60 65/65/65 58/58/58
f 72/72/72 62/62/62 64/64/64
f 72/72/72 64/64/64 76/76/76
f 76/76/76 64/64/64 63/63/63
f 76/76/76 63/63/63 78/78/78
f 78/78/78 63/63/63 61/61/61
f 78/78/78 61/61/61 74/74/74
f 58/58/58 1/1/1 36/36/36
f 36/36/36 35/35/35 61/61/61
f 61/61/61 63/63/63 64/64/64
f 64/64/64 62/62/62 57/57/57
f 57/57/57 59/59/59 60/60/60
f 60/60/60 58/58/58 36/36/36
f 36/36/36 61/61/61 64/64/64
f 64/64/64 57/57/57 60/60/60
f 36/36/36 64/64/64 60/60/60
f 52/52/52 47/47/47 1/1/1
f 1/1/1 58/58/58 65/65/65
f 1/1/1 65/65/65 52/52/52
f 62/62/62 72/72/72 67/67/67
f 62/62/62 67/67/67 57/57/57
f 61/61/61 35/35/35 40/40/40
f 61/61/61 40/40/40 74/74/74
f 8/8/8 68/68/68 67/67/67
f 67/67/67 72/72/72 75/75/75
f 75/75/75 11/11/11 8/8/8
f 67/67/67 75/75/75 8/8/8
f 5/5/5 53/53/53 52/52/52
f 52/52/52 65/65/65 68/68/68
f 68/68/68 8/8/8 5/5/5
f 52/52/52 68/68/68 5/5/5
f 11/11/11 75/75/75 74/74/74
f 74/74/74 40/40/40 43/43/43
f 43/43/43 10/10/10 11/11/11
f 74/74/74 43/43/43 11/11/11
