<?xml version="1.0" encoding="UTF-8"?>
<COLLADA xmlns="http://www.collada.org/2005/11/COLLADASchema" version="1.4.1">
 <asset>
  <contributor>
   <authoring_tool>SceneKit Collada Exporter v1.0</authoring_tool>
  </contributor>
  <created>2026-04-02T01:34:05Z</created>
  <modified>2026-04-02T01:34:05Z</modified>
  <unit meter="1.000000"/>
  <up_axis>Y_UP</up_axis>
 </asset>
 <library_animations>
  <animation id="Camera-Shake-Zero_camera-anim-shake_002_transform" name="Camera-Shake-Zero_camera-anim-shake_002_transform">
   <animation id="keyframedAnimations1">
    <source id="genericSource2">
     <float_array id="Camera-Shake-Zero_camera-anim-shake_002_transform3-array" count="11">0 0.0347222 0.0694444 0.104167 0.138889 0.173611 0.208333 0.243056 0.277778 0.3125 0.416667 </float_array>
     <technique_common>
      <accessor source="#Camera-Shake-Zero_camera-anim-shake_002_transform3-array" count="11" stride="1">
       <param name="TIME" type="float"/>
      </accessor>
     </technique_common>
    </source>
    <source id="genericSource4">
     <float_array id="Camera-Shake-Zero_camera-anim-shake_002_transform5-array" count="176">1 -0 0 0.2 0 1 2.22525e-07 0.05 -0 -2.22525e-07 1 0 0 0 0 1 1 -0 0 0.2 0 1 2.22525e-07 0.05 -0 -2.22525e-07 1 0 0 0 0 1 1 -0 0 0.0666666 0 1 2.22525e-07 0.0833334 -0 -2.22525e-07 1 0 0 0 0 1 1 -0 0 -0.1 0 1 2.22525e-07 0.05 -0 -2.22525e-07 1 0 0 0 0 1 1 -0 0 -0.158333 0 1 2.22525e-07 -0.0333333 -0 -2.22525e-07 1 0 0 0 0 1 1 -0 0 -0.0541666 0 1 2.22525e-07 -0.0916666 -0 -2.22525e-07 1 0 0 0 0 1 1 -0 0 0.05 0 1 2.22525e-07 -0.05 -0 -2.22525e-07 1 0 0 0 0 1 1 -0 0 0.0291667 0 1 2.22525e-07 -0.00833337 -0 -2.22525e-07 1 0 0 0 0 1 1 -0 0 0.00833333 0 1 2.22525e-07 0 -0 -2.22525e-07 1 0 0 0 0 1 1 -0 0 0 0 1 2.22525e-07 0 -0 -2.22525e-07 1 0 0 0 0 1 1 -0 0 0 0 1 2.22525e-07 0 -0 -2.22525e-07 1 0 0 0 0 1 </float_array>
     <technique_common>
      <accessor source="#Camera-Shake-Zero_camera-anim-shake_002_transform5-array" count="11" stride="16">
       <param name="TRANSFORM" type="float4x4"/>
      </accessor>
     </technique_common>
    </source>
    <sampler id="Camera-Shake-Zero_camera-anim-shake_002_transform6">
     <input semantic="INPUT" source="#genericSource2"/>
     <input semantic="OUTPUT" source="#genericSource4"/>
    </sampler>
    <channel source="#Camera-Shake-Zero_camera-anim-shake_002_transform6" target="Camera-Shake-Zero/SID_1"/>
   </animation>
  </animation>
 </library_animations>
 <library_cameras>
  <camera id="Camera-Shake-Zero-camera" name="Camera_002">
   <optics>
    <technique_common>
     <perspective>
      <xfov>61.9275</xfov>
      <znear>0.1</znear>
      <zfar>100</zfar>
     </perspective>
    </technique_common>
   </optics>
  </camera>
 </library_cameras>
 <library_visual_scenes>
  <visual_scene id="scene7">
   <node id="Camera-Shake-Zero" name="Camera-Shake">
    <matrix sid="SID_1">0.9999997 -0 0 0 0 0.9999998 2.225253e-07 0 -0 -2.225253e-07 0.9999998 0 0 0 0 1 </matrix>
    <instance_camera url="#Camera-Shake-Zero-camera"/>
   </node>
  </visual_scene>
 </library_visual_scenes>
 <scene>
  <instance_visual_scene url="#scene7"/>
 </scene>
</COLLADA>
