<?xml version="1.0" encoding="UTF-8"?>
<COLLADA xmlns="http://www.collada.org/2005/11/COLLADASchema" version="1.4.1">
 <asset>
  <contributor>
   <authoring_tool>SceneKit Collada Exporter v1.0</authoring_tool>
  </contributor>
  <created>2026-04-02T01:34:05Z</created>
  <modified>2026-04-02T01:34:05Z</modified>
  <unit meter="1.000000"/>
  <up_axis>Y_UP</up_axis>
 </asset>
 <library_animations>
  <animation id="bolt3_bolt3Action_transform" name="bolt3_bolt3Action_transform">
   <animation id="keyframedAnimations1">
    <source id="genericSource2">
     <float_array id="bolt3_bolt3Action_transform3-array" count="30">0 0.0333333 0.133333 0.166667 0.433333 0.466667 0.5 0.566667 0.6 0.766667 0.8 0.866667 0.9 1.96667 2 2.06667 2.1 2.26667 2.3 2.36667 2.4 4.3 4.33333 4.4 4.43333 4.6 4.63333 4.7 4.73333 6 </float_array>
     <technique_common>
      <accessor source="#bolt3_bolt3Action_transform3-array" count="30" stride="1">
       <param name="TIME" type="float"/>
      </accessor>
     </technique_common>
    </source>
    <source id="genericSource4">
     <float_array id="bolt3_bolt3Action_transform5-array" count="480">0.001 0 0 0 0 0.001 0 1000 0 0 0.001 0 0 0 0 1 0.001 0 0 0 0 0.001 0 1000 0 0 0.001 0 0 0 0 1 0.001 0 0 0 0 0.001 0 1000 0 0 0.001 0 0 0 0 1 0.001 0 0 0 0 0.001 0 1000 0 0 0.001 0 0 0 0 1 0.001 0 0 0 0 0.001 0 1000 0 0 0.001 0 0 0 0 1 0.00100179 0 0 0 0 0.00100179 0 999.998 0 0 0.00100179 0 0 0 0 1 1 0 0 0 0 1 0 6 0 0 1 0 0 0 0 1 1 0 0 0 0 1 0 6 0 0 1 0 0 0 0 1 0.001 0 0 0 0 0.001 0 1000 0 0 0.001 0 0 0 0 1 0.001 0 0 0 0 0.001 0 1000 0 0 0.001 0 0 0 0 1 1 0 0 0 0 1 0 6 0 0 1 0 0 0 0 1 1 0 0 0 0 1 0 6 0 0 1 0 0 0 0 1 0.001 0 0 0 0 0.001 0 1000 0 0 0.001 0 0 0 0 1 0.001 0 0 0 0 0.001 0 1000 0 0 0.001 0 0 0 0 1 0.173648 0 -0.984808 0 -0 1 0 6 0.984808 0 0.173648 0 0 0 0 1 0.173648 0 -0.984808 0 -0 1 0 6 0.984808 0 0.173648 0 0 0 0 1 0.000173648 0 -0.000984808 0 -0 0.001 0 1000 0.000984808 0 0.000173648 0 0 0 0 1 0.000173648 0 -0.000984808 0 -0 0.001 0 1000 0.000984808 0 0.000173648 0 0 0 0 1 -1 0 -8.74228e-08 0 0 1 0 6 8.74228e-08 -0 -1 0 0 0 0 1 -1 0 -8.74228e-08 0 0 1 0 6 8.74228e-08 -0 -1 0 0 0 0 1 -0.001 0 -8.74228e-11 0 0 0.001 0 1000 8.74228e-11 -0 -0.001 0 0 0 0 1 -0.001 0 -8.74228e-11 0 0 0.001 0 1000 8.74228e-11 -0 -0.001 0 0 0 0 1 -0.5 0 -0.866025 0 -0 1 0 6 0.866025 0 -0.5 0 0 0 0 1 -0.5 0 -0.866025 0 -0 1 0 6 0.866025 0 -0.5 0 0 0 0 1 0.000173648 0 0.000984808 0 0 0.001 -0 1000 -0.000984808 0 0.000173648 0 0 0 0 1 0.000173648 0 0.000984808 0 0 0.001 -0 1000 -0.000984808 0 0.000173648 0 0 0 0 1 -0.5 0 -0.866025 0 -0 1 0 6 0.866025 0 -0.5 0 0 0 0 1 -0.5 0 -0.866025 0 -0 1 0 6 0.866025 0 -0.5 0 0 0 0 1 -0.0005 0 -0.000866026 0 -0 0.001 0 1000 0.000866026 0 -0.0005 0 0 0 0 1 -0.0005 0 -0.000866026 0 -0 0.001 0 1000 0.000866026 0 -0.0005 0 0 0 0 1 </float_array>
     <technique_common>
      <accessor source="#bolt3_bolt3Action_transform5-array" count="30" stride="16">
       <param name="TRANSFORM" type="float4x4"/>
      </accessor>
     </technique_common>
    </source>
    <sampler id="bolt3_bolt3Action_transform6">
     <input semantic="INPUT" source="#genericSource2"/>
     <input semantic="OUTPUT" source="#genericSource4"/>
    </sampler>
    <channel source="#bolt3_bolt3Action_transform6" target="bolt3/SID_1"/>
   </animation>
  </animation>
  <animation id="bolt2_bolt2Action_transform" name="bolt2_bolt2Action_transform">
   <animation id="keyframedAnimations7">
    <source id="genericSource8">
     <float_array id="bolt2_bolt2Action_transform9-array" count="29">0 0.0333333 0.133333 0.166667 0.7 0.733333 0.766667 0.8 0.833333 1.9 1.93333 1.96667 2 2.03333 2.2 2.23333 2.3 2.33333 4.26667 4.3 4.33333 4.36667 4.5 4.53333 4.56667 4.6 4.63333 4.66667 6 </float_array>
     <technique_common>
      <accessor source="#bolt2_bolt2Action_transform9-array" count="29" stride="1">
       <param name="TIME" type="float"/>
      </accessor>
     </technique_common>
    </source>
    <source id="genericSource10">
     <float_array id="bolt2_bolt2Action_transform11-array" count="464">0.001 0 0 0 0 0.001 0 1000 0 0 0.001 0 0 0 0 1 0.001 0 0 0 0 0.001 0 1000 0 0 0.001 0 0 0 0 1 0.001 0 0 0 0 0.001 0 1000 0 0 0.001 0 0 0 0 1 0.001 0 0 0 0 0.001 0 1000 0 0 0.001 0 0 0 0 1 0.001 0 0 0 0 0.001 0 1000 0 0 0.001 0 0 0 0 1 0.999998 0 0 0 0 0.999998 0 6.00178 0 0 0.999998 0 0 0 0 1 1 0 0 0 0 1 0 6 0 0 1 0 0 0 0 1 1 0 0 0 0 1 0 6 0 0 1 0 0 0 0 1 0.001 0 0 0 0 0.001 0 1000 0 0 0.001 0 0 0 0 1 0.001 0 0 0 0 0.001 0 1000 0 0 0.001 0 0 0 0 1 0.00100124 0 -7.01693e-06 0 -0 0.00100715 0 999.993 7.01693e-06 0 0.00100124 0 0 0 0 1 0.173646 0 -0.984797 0 -0 0.999989 0 6.01066 0.984797 0 0.173646 0 0 0 0 1 0.173648 0 -0.984808 0 -0 1 0 6 0.984808 0 0.173648 0 0 0 0 1 0.000173648 0 -0.000984808 0 -0 0.001 0 1000 0.000984808 0 0.000173648 0 0 0 0 1 0.000173648 0 -0.000984808 0 -0 0.001 0 1000 0.000984808 0 0.000173648 0 0 0 0 1 -1 0 -8.74228e-08 0 0 1 0 6 8.74228e-08 -0 -1 0 0 0 0 1 -1 0 -8.74228e-08 0 0 1 0 6 8.74228e-08 -0 -1 0 0 0 0 1 -0.001 0 -8.74228e-11 0 0 0.001 0 1000 8.74228e-11 -0 -0.001 0 0 0 0 1 -0.001 0 -8.74228e-11 0 0 0.001 0 1000 8.74228e-11 -0 -0.001 0 0 0 0 1 -0.173648 0 0.984808 0 0 1 -0 6 -0.984808 0 -0.173648 0 0 0 0 1 -0.173646 0 0.984794 0 0 0.999986 -0 6.01422 -0.984794 0 -0.173646 0 0 0 0 1 -0.0005 0 -0.000866026 0 -0 0.001 0 1000 0.000866026 0 -0.0005 0 0 0 0 1 -0.0005 0 -0.000866026 0 -0 0.001 0 1000 0.000866026 0 -0.0005 0 0 0 0 1 -0.00100714 0 -1.23883e-05 0 0 0.00101429 0 999.986 1.23883e-05 -0 -0.00100714 0 0 0 0 1 -0.499993 0 -0.866013 0 -0 0.999986 0 6.01422 0.866013 0 -0.499993 0 0 0 0 1 -0.5 0 -0.866025 0 -0 1 0 6 0.866025 0 -0.5 0 0 0 0 1 -0.5 0 -0.866025 0 -0 1 0 6 0.866025 0 -0.5 0 0 0 0 1 -0.0005 0 -0.000866026 0 -0 0.001 0 1000 0.000866026 0 -0.0005 0 0 0 0 1 -0.0005 0 -0.000866026 0 -0 0.001 0 1000 0.000866026 0 -0.0005 0 0 0 0 1 </float_array>
     <technique_common>
      <accessor source="#bolt2_bolt2Action_transform11-array" count="29" stride="16">
       <param name="TRANSFORM" type="float4x4"/>
      </accessor>
     </technique_common>
    </source>
    <sampler id="bolt2_bolt2Action_transform12">
     <input semantic="INPUT" source="#genericSource8"/>
     <input semantic="OUTPUT" source="#genericSource10"/>
    </sampler>
    <channel source="#bolt2_bolt2Action_transform12" target="bolt2/SID_2"/>
   </animation>
  </animation>
  <animation id="bolt1_bolt1Action_transform" name="bolt1_bolt1Action_transform">
   <animation id="keyframedAnimations13">
    <source id="genericSource14">
     <float_array id="bolt1_bolt1Action_transform15-array" count="23">0 0.0333333 0.133333 0.166667 0.533333 0.566667 0.6 0.733333 0.766667 0.8 2 2.03333 2.06667 2.1 2.2 2.23333 2.26667 2.3 4.36667 4.4 4.56667 4.6 6 </float_array>
     <technique_common>
      <accessor source="#bolt1_bolt1Action_transform15-array" count="23" stride="1">
       <param name="TIME" type="float"/>
      </accessor>
     </technique_common>
    </source>
    <source id="genericSource16">
     <float_array id="bolt1_bolt1Action_transform17-array" count="368">0.001 0 0 0 0 0.001 0 1000 0 0 0.001 0 0 0 0 1 0.001 0 0 0 0 0.001 0 1000 0 0 0.001 0 0 0 0 1 0.001 0 0 0 0 0.001 0 1000 0 0 0.001 0 0 0 0 1 0.001 0 0 0 0 0.001 0 1000 0 0 0.001 0 0 0 0 1 0.001 0 0 0 0 0.001 0 1000 0 0 0.001 0 0 0 0 1 0.999998 0 0 0 0 0.999998 0 6.00178 0 0 0.999998 0 0 0 0 1 1 0 0 0 0 1 0 6 0 0 1 0 0 0 0 1 1 0 0 0 0 1 0 6 0 0 1 0 0 0 0 1 0.00100179 0 0 0 0 0.00100179 0 999.998 0 0 0.00100179 0 0 0 0 1 0.001 0 0 0 0 0.001 0 1000 0 0 0.001 0 0 0 0 1 0.001 0 0 0 0 0.001 0 1000 0 0 0.001 0 0 0 0 1 0.000992841 0 0 0 0 0.00100715 0 999.993 0 0 0.000992841 0 0 0 0 1 -0.999985 0 -8.74215e-08 0 0 0.999986 0 6.01422 8.74215e-08 -0 -0.999985 0 0 0 0 1 -1 0 -8.74228e-08 0 0 1 0 6 8.74228e-08 -0 -1 0 0 0 0 1 -1 0 -8.74228e-08 0 0 1 0 6 8.74228e-08 -0 -1 0 0 0 0 1 -0.999993 0 -8.74221e-08 0 0 0.999993 0 6.00711 8.74221e-08 -0 -0.999993 0 0 0 0 1 -0.00100715 0 -8.80475e-11 0 0 0.00100715 0 999.993 8.80475e-11 -0 -0.00100715 0 0 0 0 1 -0.001 0 -8.74228e-11 0 0 0.001 0 1000 8.74228e-11 -0 -0.001 0 0 0 0 1 -0.001 0 -8.74228e-11 0 0 0.001 0 1000 8.74228e-11 -0 -0.001 0 0 0 0 1 -0.5 0 -0.866025 0 -0 1 0 6 0.866025 0 -0.5 0 0 0 0 1 -0.5 0 -0.866025 0 -0 1 0 6 0.866025 0 -0.5 0 0 0 0 1 -0.0005 0 -0.000866026 0 -0 0.001 0 1000 0.000866026 0 -0.0005 0 0 0 0 1 -0.0005 0 -0.000866026 0 -0 0.001 0 1000 0.000866026 0 -0.0005 0 0 0 0 1 </float_array>
     <technique_common>
      <accessor source="#bolt1_bolt1Action_transform17-array" count="23" stride="16">
       <param name="TRANSFORM" type="float4x4"/>
      </accessor>
     </technique_common>
    </source>
    <sampler id="bolt1_bolt1Action_transform18">
     <input semantic="INPUT" source="#genericSource14"/>
     <input semantic="OUTPUT" source="#genericSource16"/>
    </sampler>
    <channel source="#bolt1_bolt1Action_transform18" target="bolt1/SID_3"/>
   </animation>
  </animation>
 </library_animations>
 <library_geometries>
  <geometry id="geometry19">
   <mesh>
    <source id="geometrySource20">
     <float_array id="ID21-array" count="540">-1.00092 0 0.25 -2.2144 -2.35528 0.0600982 -2.2144 -2.35528 0.560098 -1.00092 0 -0.25 -1.7144 -2.35528 0.0600982 -2.2144 -2.35528 0.0600982 -1.7144 -2.35528 0.0600982 -0.500922 0 0.25 -1.7144 -2.35528 0.560098 -1.7144 -2.35528 0.560098 -1.00092 0 0.25 -2.2144 -2.35528 0.560098 -1.54543 -6 0.322379 -1.59347 -6 0.370412 -1.59347 -6 0.322379 -1.00092 0 -0.25 -0.500922 0 0.25 -0.500922 0 -0.25 -1.7144 -2.35528 0.560098 -1.92431 -3.12323 0.15894 -1.43016 -3.04695 0.15894 -1.7144 -2.35528 0.0600982 -1.43016 -3.04695 0.15894 -1.43016 -3.04695 -0.34106 -1.92431 -3.12323 -0.34106 -1.7144 -2.35528 0.0600982 -1.43016 -3.04695 -0.34106 -1.92431 -3.12323 0.15894 -2.2144 -2.35528 0.0600982 -1.92431 -3.12323 -0.34106 -1.14892 -4.4196 -0.34936 -1.72067 -3.53449 -0.613261 -1.14892 -4.4196 -0.668266 -1.14892 -4.4196 -0.668266 -1.22652 -3.4582 -0.613261 -0.830585 -4.43483 -0.668266 -1.22652 -3.4582 -0.613261 -0.830585 -4.43483 -0.34936 -0.830585 -4.43483 -0.668266 -1.22652 -3.4582 -0.113261 -1.14892 -4.4196 -0.34936 -0.830585 -4.43483 -0.34936 -2.55749 -4.35097 -1.00802 -2.81744 -4.90704 -0.982945 -2.73876 -4.27792 -0.97128 -1.72067 -3.53449 -0.613261 -1.43016 -3.04695 -0.34106 -1.22652 -3.4582 -0.613261 -1.43016 -3.04695 -0.34106 -1.22652 -3.4582 -0.113261 -1.22652 -3.4582 -0.613261 -1.43016 -3.04695 0.15894 -1.72067 -3.53449 -0.113261 -1.22652 -3.4582 -0.113261 -2.81744 -4.90704 -0.931708 -2.77042 -4.90649 -0.982794 -2.77042 -4.90649 -0.931556 -2.73876 -4.27792 -0.97128 -2.81744 -4.90704 -0.931708 -2.73876 -4.27792 -0.753379 -2.55749 -4.35097 -0.790116 -2.81744 -4.90704 -0.931708 -2.77042 -4.90649 -0.931556 -2.55749 -4.35097 -1.00802 -2.77042 -4.90649 -0.931556 -2.77042 -4.90649 -0.982794 -1.72067 -3.53449 -0.613261 -2.55749 -4.35097 -0.790116 -2.55749 -4.35097 -1.00802 -1.72067 -3.53449 -0.113261 -2.73876 -4.27792 -0.753379 -2.55749 -4.35097 -0.790116 -1.92431 -3.12323 -0.34106 -2.73876 -4.27792 -0.753379 -1.92431 -3.12323 0.15894 -1.72067 -3.53449 -0.613261 -2.73876 -4.27792 -0.97128 -1.92431 -3.12323 -0.34106 -1.54543 -6 0.370412 -1.14892 -4.4196 -0.34936 -1.59347 -6 0.370412 -1.54543 -6 0.322379 -0.830585 -4.43483 -0.34936 -1.54543 -6 0.370412 -1.14892 -4.4196 -0.668266 -1.54543 -6 0.322379 -1.59347 -6 0.322379 -1.14892 -4.4196 -0.34936 -1.59347 -6 0.322379 -1.59347 -6 0.370412 -1.00092 0 0.25 -1.00092 0 -0.25 -2.2144 -2.35528 0.0600982 -1.00092 0 -0.25 -0.500922 0 -0.25 -1.7144 -2.35528 0.0600982 -1.7144 -2.35528 0.0600982 -0.500922 0 -0.25 -0.500922 0 0.25 -1.7144 -2.35528 0.560098 -0.500922 0 0.25 -1.00092 0 0.25 -1.54543 -6 0.322379 -1.54543 -6 0.370412 -1.59347 -6 0.370412 -1.00092 0 -0.25 -1.00092 0 0.25 -0.500922 0 0.25 -1.7144 -2.35528 0.560098 -2.2144 -2.35528 0.560098 -1.92431 -3.12323 0.15894 -1.7144 -2.35528 0.0600982 -1.7144 -2.35528 0.560098 -1.43016 -3.04695 0.15894 -1.92431 -3.12323 -0.34106 -2.2144 -2.35528 0.0600982 -1.7144 -2.35528 0.0600982 -1.92431 -3.12323 0.15894 -2.2144 -2.35528 0.560098 -2.2144 -2.35528 0.0600982 -1.14892 -4.4196 -0.34936 -1.72067 -3.53449 -0.113261 -1.72067 -3.53449 -0.613261 -1.14892 -4.4196 -0.668266 -1.72067 -3.53449 -0.613261 -1.22652 -3.4582 -0.613261 -1.22652 -3.4582 -0.613261 -1.22652 -3.4582 -0.113261 -0.830585 -4.43483 -0.34936 -1.22652 -3.4582 -0.113261 -1.72067 -3.53449 -0.113261 -1.14892 -4.4196 -0.34936 -2.55749 -4.35097 -1.00802 -2.77042 -4.90649 -0.982794 -2.81744 -4.90704 -0.982945 -1.72067 -3.53449 -0.613261 -1.92431 -3.12323 -0.34106 -1.43016 -3.04695 -0.34106 -1.43016 -3.04695 -0.34106 -1.43016 -3.04695 0.15894 -1.22652 -3.4582 -0.113261 -1.43016 -3.04695 0.15894 -1.92431 -3.12323 0.15894 -1.72067 -3.53449 -0.113261 -2.81744 -4.90704 -0.931708 -2.81744 -4.90704 -0.982945 -2.77042 -4.90649 -0.982794 -2.73876 -4.27792 -0.97128 -2.81744 -4.90704 -0.982945 -2.81744 -4.90704 -0.931708 -2.55749 -4.35097 -0.790116 -2.73876 -4.27792 -0.753379 -2.81744 -4.90704 -0.931708 -2.55749 -4.35097 -1.00802 -2.55749 -4.35097 -0.790116 -2.77042 -4.90649 -0.931556 -1.72067 -3.53449 -0.613261 -1.72067 -3.53449 -0.113261 -2.55749 -4.35097 -0.790116 -1.72067 -3.53449 -0.113261 -1.92431 -3.12323 0.15894 -2.73876 -4.27792 -0.753379 -1.92431 -3.12323 -0.34106 -2.73876 -4.27792 -0.97128 -2.73876 -4.27792 -0.753379 -1.72067 -3.53449 -0.613261 -2.55749 -4.35097 -1.00802 -2.73876 -4.27792 -0.97128 -1.54543 -6 0.370412 -0.830585 -4.43483 -0.34936 -1.14892 -4.4196 -0.34936 -1.54543 -6 0.322379 -0.830585 -4.43483 -0.668266 -0.830585 -4.43483 -0.34936 -1.14892 -4.4196 -0.668266 -0.830585 -4.43483 -0.668266 -1.54543 -6 0.322379 -1.14892 -4.4196 -0.34936 -1.14892 -4.4196 -0.668266 -1.59347 -6 0.322379 </float_array>
     <technique_common>
      <accessor source="#ID21-array" count="180" stride="3">
       <param name="X" type="float"/>
       <param name="Y" type="float"/>
       <param name="Z" type="float"/>
      </accessor>
     </technique_common>
    </source>
    <source id="geometrySource22">
     <float_array id="ID23-array" count="540">-0.888951 0.458002 -0 -0.888951 0.458002 -0 -0.888951 0.458002 -0 0 -0.130534 -0.991444 0 -0.130534 -0.991444 0 -0.130534 -0.991444 0.888951 -0.458002 -0 0.888951 -0.458002 -0 0.888951 -0.458002 -0 0 0.130534 0.991444 0 0.130534 0.991444 0 0.130534 0.991444 0 -1 -0 0 -1 -0 0 -1 -0 0 1 -0 0 1 -0 0 1 -0 0.0737172 -0.477503 0.875532 0.0737172 -0.477503 0.875532 0.0737172 -0.477503 0.875532 0.924946 0.380098 -0 0.924946 0.380098 -0 0.924946 0.380098 -0 -0.0737172 0.477503 -0.875532 -0.0737172 0.477503 -0.875532 -0.0737172 0.477503 -0.875532 -0.935483 -0.353371 -0 -0.935483 -0.353371 -0 -0.935483 -0.353371 -0 -0.839986 -0.542608 -0 -0.839986 -0.542608 -0 -0.839986 -0.542608 -0 0.00274312 0.0573407 -0.998351 0.00274312 0.0573407 -0.998351 0.00274312 0.0573407 -0.998351 0.926736 0.375713 -0 0.926736 0.375713 -0 0.926736 0.375713 -0 -0.0114506 -0.23935 0.970866 -0.0114506 -0.23935 0.970866 -0.0114506 -0.23935 0.970866 -0.182545 0.0410464 -0.98234 -0.182545 0.0410464 -0.98234 -0.182545 0.0410464 -0.98234 -0.0805992 0.522075 -0.849082 -0.0805992 0.522075 -0.849082 -0.0805992 0.522075 -0.849082 0.896154 0.443743 -0 0.896154 0.443743 -0 0.896154 0.443743 -0 0.0805988 -0.522076 0.849082 0.0805988 -0.522076 0.849082 0.0805988 -0.522076 0.849082 0.011552 -0.999933 1.93255e-07 0.011552 -0.999933 1.93255e-07 0.011552 -0.999933 1.93255e-07 -0.992269 0.124104 -0 -0.992269 0.124104 -0 -0.992269 0.124104 -0 -0.000264551 -0.246639 0.969107 -0.000264551 -0.246639 0.969107 -0.000264551 -0.246639 0.969107 0.933756 -0.357911 7.82135e-06 0.933756 -0.357911 7.82135e-06 0.933756 -0.357911 7.82135e-06 0.698356 -0.715751 -0 0.698356 -0.715751 -0 0.698356 -0.715751 -0 -0.0747666 -0.589891 0.804014 -0.0747666 -0.589891 0.804014 -0.0747666 -0.589891 0.804014 -0.817176 0.576388 -0 -0.817176 0.576388 -0 -0.817176 0.576388 -0 -0.0821235 0.52147 -0.849308 -0.0821235 0.52147 -0.849308 -0.0821235 0.52147 -0.849308 0 0.414476 0.91006 0 0.414476 0.91006 0 0.414476 0.91006 0.909621 -0.415438 -0 0.909621 -0.415438 -0 0.909621 -0.415438 -0 0 -0.531113 -0.847301 0 -0.531113 -0.847301 0 -0.531113 -0.847301 -0.962641 0.270779 -0 -0.962641 0.270779 -0 -0.962641 0.270779 -0 -0.888951 0.458002 -0 -0.888951 0.458002 -0 -0.888951 0.458002 -0 0 -0.130534 -0.991444 0 -0.130534 -0.991444 0 -0.130534 -0.991444 0.888951 -0.458002 -0 0.888951 -0.458002 -0 0.888951 -0.458002 -0 0 0.130534 0.991444 0 0.130534 0.991444 0 0.130534 0.991444 0 -1 -0 0 -1 -0 0 -1 -0 0 1 -0 0 1 -0 0 1 -0 0 -0.463007 0.886355 0 -0.463007 0.886355 0 -0.463007 0.886355 0.924946 0.380098 -0 0.924946 0.380098 -0 0.924946 0.380098 -0 0 0.463007 -0.886355 0 0.463007 -0.886355 0 0.463007 -0.886355 -0.935483 -0.353371 -0 -0.935483 -0.353371 -0 -0.935483 -0.353371 -0 -0.839986 -0.542608 1.99719e-07 -0.839986 -0.542608 1.99719e-07 -0.839986 -0.542608 1.99719e-07 -0.00870979 0.056417 -0.998369 -0.00870979 0.056417 -0.998369 -0.00870979 0.056417 -0.998369 0.926736 0.375713 -0 0.926736 0.375713 -0 0.926736 0.375713 -0 0.0363669 -0.235566 0.971178 0.0363669 -0.235566 0.971178 0.0363669 -0.235566 0.971178 0.00375181 -0.0467928 -0.998898 0.00375181 -0.0467928 -0.998898 0.00375181 -0.0467928 -0.998898 -0.0805983 0.522076 -0.849082 -0.0805983 0.522076 -0.849082 -0.0805983 0.522076 -0.849082 0.896154 0.443743 -0 0.896154 0.443743 -0 0.896154 0.443743 -0 0.0805988 -0.522076 0.849082 0.0805988 -0.522076 0.849082 0.0805988 -0.522076 0.849082 0.0115738 -0.999933 -0 0.0115738 -0.999933 -0 0.0115738 -0.999933 -0 -0.992269 0.124104 -0 -0.992269 0.124104 -0 -0.992269 0.124104 -0 0.0805124 -0.281138 0.956284 0.0805124 -0.281138 0.956284 0.0805124 -0.281138 0.956284 0.933756 -0.357911 -0 0.933756 -0.357911 -0 0.933756 -0.357911 -0 0.698356 -0.715751 4.07851e-07 0.698356 -0.715751 4.07851e-07 0.698356 -0.715751 4.07851e-07 -0.0865679 -0.579312 0.810496 -0.0865679 -0.579312 0.810496 -0.0865679 -0.579312 0.810496 -0.817176 0.576388 -0 -0.817176 0.576388 -0 -0.817176 0.576388 -0 -0.004978 0.439406 -0.898275 -0.004978 0.439406 -0.898275 -0.004978 0.439406 -0.898275 0.0196296 0.410311 0.911735 0.0196296 0.410311 0.911735 0.0196296 0.410311 0.911735 0.90962 -0.415441 -0 0.90962 -0.415441 -0 0.90962 -0.415441 -0 -0.0251842 -0.526401 -0.849863 -0.0251842 -0.526401 -0.849863 -0.0251842 -0.526401 -0.849863 -0.962641 0.27078 -9.10761e-07 -0.962641 0.27078 -9.10761e-07 -0.962641 0.27078 -9.10761e-07 </float_array>
     <technique_common>
      <accessor source="#ID23-array" count="180" stride="3">
       <param name="X" type="float"/>
       <param name="Y" type="float"/>
       <param name="Z" type="float"/>
      </accessor>
     </technique_common>
    </source>
    <source id="geometrySource24">
     <float_array id="ID25-array" count="360">0.625 0 0.5 0.25 0.5 0 0.625 0.25 0.5 0.5 0.5 0.25 0.5 0.5 0.625 0.75 0.5 0.75 0.5 0.75 0.625 1 0.5 1 0.375 0.5 0.125 0.75 0.125 0.5 0.875 0.5 0.625 0.75 0.625 0.5 0.5 0.75 0.452505 1 0.452505 0.75 0.5 0.5 0.452505 0.75 0.452505 0.5 0.452505 0.25 0.5 0.5 0.452505 0.5 0.452505 0 0.5 0.25 0.452505 0.25 0.412457 0 0.4375 0.25 0.412457 0.25 0.412457 0.25 0.4375 0.5 0.412457 0.5 0.4375 0.5 0.412457 0.75 0.412457 0.5 0.4375 0.75 0.412457 1 0.412457 0.75 0.4375 0.25 0.452505 0.25 0.452505 0.25 0.4375 0.25 0.452505 0.5 0.4375 0.5 0.452505 0.5 0.4375 0.75 0.4375 0.5 0.452505 0.75 0.4375 1 0.4375 0.75 0.452505 0 0.4375 0.25 0.4375 0 0.452505 0.25 0.452505 0 0.452505 0 0.4375 1 0.452505 1 0.4375 1 0.4375 0.25 0.4375 0 0.4375 0.25 0.4375 0.25 0.4375 0 0.4375 0.25 0.4375 1 0.452505 1 0.4375 1 0.452505 0.25 0.452505 0 0.452505 0 0.4375 0.25 0.452505 0.25 0.452505 0.25 0.375 0.75 0.412457 1 0.375 1 0.375 0.5 0.412457 0.75 0.375 0.75 0.412457 0.25 0.375 0.5 0.375 0.25 0.412457 0 0.375 0.25 0.375 0 0.625 0 0.625 0.25 0.5 0.25 0.625 0.25 0.625 0.5 0.5 0.5 0.5 0.5 0.625 0.5 0.625 0.75 0.5 0.75 0.625 0.75 0.625 1 0.375 0.5 0.375 0.75 0.125 0.75 0.875 0.5 0.875 0.75 0.625 0.75 0.5 0.75 0.5 1 0.452505 1 0.5 0.5 0.5 0.75 0.452505 0.75 0.452505 0.25 0.5 0.25 0.5 0.5 0.452505 0 0.5 0 0.5 0.25 0.412457 0 0.4375 0 0.4375 0.25 0.412457 0.25 0.4375 0.25 0.4375 0.5 0.4375 0.5 0.4375 0.75 0.412457 0.75 0.4375 0.75 0.4375 1 0.412457 1 0.4375 0.25 0.4375 0.25 0.452505 0.25 0.4375 0.25 0.452505 0.25 0.452505 0.5 0.452505 0.5 0.452505 0.75 0.4375 0.75 0.452505 0.75 0.452505 1 0.4375 1 0.452505 0 0.452505 0.25 0.4375 0.25 0.452505 0.25 0.452505 0.25 0.452505 0 0.4375 1 0.452505 1 0.452505 1 0.4375 0.25 0.4375 0 0.4375 0 0.4375 0.25 0.4375 0 0.4375 0 0.4375 1 0.452505 1 0.452505 1 0.452505 0.25 0.452505 0.25 0.452505 0 0.4375 0.25 0.4375 0.25 0.452505 0.25 0.375 0.75 0.412457 0.75 0.412457 1 0.375 0.5 0.412457 0.5 0.412457 0.75 0.412457 0.25 0.412457 0.5 0.375 0.5 0.412457 0 0.412457 0.25 0.375 0.25 </float_array>
     <technique_common>
      <accessor source="#ID25-array" count="180" stride="2">
       <param name="S" type="float"/>
       <param name="T" type="float"/>
      </accessor>
     </technique_common>
    </source>
    <vertices id="geometrySource20-vertices">
     <input semantic="POSITION" source="#geometrySource20"/>
     <input semantic="NORMAL" source="#geometrySource22"/>
    </vertices>
    <triangles count="60" material="geometryElement26">
     <input semantic="VERTEX" offset="0" source="#geometrySource20-vertices"/>
     <input semantic="NORMAL" offset="0" source="#geometrySource22"/>
     <input semantic="TEXCOORD" offset="0" source="#geometrySource24" set="1"/>
     <p>0 1 2 3 4 5 6 7 8 9 10 11 12 13 14 15 16 17 18 19 20 21 22 23 24 25 26 27 28 29 30 31 32 33 34 35 36 37 38 39 40 41 42 43 44 45 46 47 48 49 50 51 52 53 54 55 56 57 58 59 60 61 62 63 64 65 66 67 68 69 70 71 72 73 74 75 76 77 78 79 80 81 82 83 84 85 86 87 88 89 90 91 92 93 94 95 96 97 98 99 100 101 102 103 104 105 106 107 108 109 110 111 112 113 114 115 116 117 118 119 120 121 122 123 124 125 126 127 128 129 130 131 132 133 134 135 136 137 138 139 140 141 142 143 144 145 146 147 148 149 150 151 152 153 154 155 156 157 158 159 160 161 162 163 164 165 166 167 168 169 170 171 172 173 174 175 176 177 178 179 </p>
    </triangles>
   </mesh>
  </geometry>
  <geometry id="geometry27">
   <mesh>
    <source id="geometrySource28">
     <float_array id="ID29-array" count="540">-0.787236 0 0.0363144 -2.00586 -2.35528 0.268637 -2.00586 -2.35528 0.35156 -0.787236 0 -0.0363144 -1.92294 -2.35528 0.268637 -2.00586 -2.35528 0.268637 -1.92294 -2.35528 0.268637 -0.714607 0 0.0363144 -1.92294 -2.35528 0.35156 -1.92294 -2.35528 0.35156 -0.787236 0 0.0363144 -2.00586 -2.35528 0.35156 -1.56788 -6 0.344824 -1.57102 -6 0.347966 -1.57102 -6 0.344824 -0.787236 0 -0.0363144 -0.714607 0 0.0363144 -0.714607 0 -0.0363144 -1.92294 -2.35528 0.35156 -1.694 -3.17681 -0.141323 -1.60444 -3.16298 -0.141323 -1.92294 -2.35528 0.268637 -1.60444 -3.16298 -0.141323 -1.60444 -3.16298 -0.231936 -1.694 -3.17681 -0.231936 -1.92294 -2.35528 0.268637 -1.60444 -3.16298 -0.231936 -1.694 -3.17681 -0.141323 -2.00586 -2.35528 0.268637 -1.694 -3.17681 -0.231936 -1.00638 -4.42642 -0.492154 -1.66213 -3.24035 -0.275099 -1.00638 -4.42642 -0.525472 -1.00638 -4.42642 -0.525472 -1.57541 -3.22696 -0.275099 -0.973121 -4.42801 -0.525472 -1.57541 -3.22696 -0.275099 -0.973121 -4.42801 -0.492154 -0.973121 -4.42801 -0.525472 -1.57541 -3.22696 -0.18735 -1.00638 -4.42642 -0.492154 -0.973121 -4.42801 -0.492154 -2.6361 -4.31929 -0.897588 -2.79863 -4.90682 -0.962387 -2.66015 -4.3096 -0.892714 -1.66213 -3.24035 -0.275099 -1.60444 -3.16298 -0.231936 -1.57541 -3.22696 -0.275099 -1.60444 -3.16298 -0.231936 -1.57541 -3.22696 -0.18735 -1.57541 -3.22696 -0.275099 -1.60444 -3.16298 -0.141323 -1.66213 -3.24035 -0.18735 -1.57541 -3.22696 -0.18735 -2.79863 -4.90682 -0.952145 -2.78923 -4.90671 -0.962357 -2.78923 -4.90671 -0.952115 -2.66015 -4.3096 -0.892714 -2.79863 -4.90682 -0.952145 -2.66015 -4.3096 -0.863808 -2.6361 -4.31929 -0.868682 -2.79863 -4.90682 -0.952145 -2.78923 -4.90671 -0.952115 -2.6361 -4.31929 -0.897588 -2.78923 -4.90671 -0.952115 -2.78923 -4.90671 -0.962357 -1.66213 -3.24035 -0.275099 -2.6361 -4.31929 -0.868682 -2.6361 -4.31929 -0.897588 -1.66213 -3.24035 -0.18735 -2.66015 -4.3096 -0.863808 -2.6361 -4.31929 -0.868682 -1.694 -3.17681 -0.231936 -2.66015 -4.3096 -0.863808 -1.694 -3.17681 -0.141323 -1.66213 -3.24035 -0.275099 -2.66015 -4.3096 -0.892714 -1.694 -3.17681 -0.231936 -1.56788 -6 0.347966 -1.00638 -4.42642 -0.492154 -1.57102 -6 0.347966 -1.56788 -6 0.344824 -0.973121 -4.42801 -0.492154 -1.56788 -6 0.347966 -1.00638 -4.42642 -0.525472 -1.56788 -6 0.344824 -1.57102 -6 0.344824 -1.00638 -4.42642 -0.492154 -1.57102 -6 0.344824 -1.57102 -6 0.347966 -0.787236 0 0.0363144 -0.787236 0 -0.0363144 -2.00586 -2.35528 0.268637 -0.787236 0 -0.0363144 -0.714607 0 -0.0363144 -1.92294 -2.35528 0.268637 -1.92294 -2.35528 0.268637 -0.714607 0 -0.0363144 -0.714607 0 0.0363144 -1.92294 -2.35528 0.35156 -0.714607 0 0.0363144 -0.787236 0 0.0363144 -1.56788 -6 0.344824 -1.56788 -6 0.347966 -1.57102 -6 0.347966 -0.787236 0 -0.0363144 -0.787236 0 0.0363144 -0.714607 0 0.0363144 -1.92294 -2.35528 0.35156 -2.00586 -2.35528 0.35156 -1.694 -3.17681 -0.141323 -1.92294 -2.35528 0.268637 -1.92294 -2.35528 0.35156 -1.60444 -3.16298 -0.141323 -1.694 -3.17681 -0.231936 -2.00586 -2.35528 0.268637 -1.92294 -2.35528 0.268637 -1.694 -3.17681 -0.141323 -2.00586 -2.35528 0.35156 -2.00586 -2.35528 0.268637 -1.00638 -4.42642 -0.492154 -1.66213 -3.24035 -0.18735 -1.66213 -3.24035 -0.275099 -1.00638 -4.42642 -0.525472 -1.66213 -3.24035 -0.275099 -1.57541 -3.22696 -0.275099 -1.57541 -3.22696 -0.275099 -1.57541 -3.22696 -0.18735 -0.973121 -4.42801 -0.492154 -1.57541 -3.22696 -0.18735 -1.66213 -3.24035 -0.18735 -1.00638 -4.42642 -0.492154 -2.6361 -4.31929 -0.897588 -2.78923 -4.90671 -0.962357 -2.79863 -4.90682 -0.962387 -1.66213 -3.24035 -0.275099 -1.694 -3.17681 -0.231936 -1.60444 -3.16298 -0.231936 -1.60444 -3.16298 -0.231936 -1.60444 -3.16298 -0.141323 -1.57541 -3.22696 -0.18735 -1.60444 -3.16298 -0.141323 -1.694 -3.17681 -0.141323 -1.66213 -3.24035 -0.18735 -2.79863 -4.90682 -0.952145 -2.79863 -4.90682 -0.962387 -2.78923 -4.90671 -0.962357 -2.66015 -4.3096 -0.892714 -2.79863 -4.90682 -0.962387 -2.79863 -4.90682 -0.952145 -2.6361 -4.31929 -0.868682 -2.66015 -4.3096 -0.863808 -2.79863 -4.90682 -0.952145 -2.6361 -4.31929 -0.897588 -2.6361 -4.31929 -0.868682 -2.78923 -4.90671 -0.952115 -1.66213 -3.24035 -0.275099 -1.66213 -3.24035 -0.18735 -2.6361 -4.31929 -0.868682 -1.66213 -3.24035 -0.18735 -1.694 -3.17681 -0.141323 -2.66015 -4.3096 -0.863808 -1.694 -3.17681 -0.231936 -2.66015 -4.3096 -0.892714 -2.66015 -4.3096 -0.863808 -1.66213 -3.24035 -0.275099 -2.6361 -4.31929 -0.897588 -2.66015 -4.3096 -0.892714 -1.56788 -6 0.347966 -0.973121 -4.42801 -0.492154 -1.00638 -4.42642 -0.492154 -1.56788 -6 0.344824 -0.973121 -4.42801 -0.525472 -0.973121 -4.42801 -0.492154 -1.00638 -4.42642 -0.525472 -0.973121 -4.42801 -0.525472 -1.56788 -6 0.344824 -1.00638 -4.42642 -0.492154 -1.00638 -4.42642 -0.525472 -1.57102 -6 0.344824 </float_array>
     <technique_common>
      <accessor source="#ID29-array" count="180" stride="3">
       <param name="X" type="float"/>
       <param name="Y" type="float"/>
       <param name="Z" type="float"/>
      </accessor>
     </technique_common>
    </source>
    <source id="geometrySource30">
     <float_array id="ID31-array" count="540">-0.88816 0.459535 -0 -0.88816 0.459535 -0 -0.88816 0.459535 -0 0 -0.128404 -0.991722 0 -0.128404 -0.991722 0 -0.128404 -0.991722 0.889741 -0.456465 -0 0.889741 -0.456465 -0 0.889741 -0.456465 -0 0 0.132663 0.991161 0 0.132663 0.991161 0 0.132663 0.991161 0 -1 -0 0 -1 -0 0 -1 -0 0 1 -0 0 1 -0 0 1 -0 0.0767488 -0.497137 0.864271 0.0767488 -0.497137 0.864271 0.0767488 -0.497137 0.864271 0.930287 0.366831 -0 0.930287 0.366831 -0 0.930287 0.366831 -0 -0.0776383 0.502897 -0.860853 -0.0776383 0.502897 -0.860853 -0.0776383 0.502897 -0.860853 -0.934903 -0.354903 2.99429e-06 -0.934903 -0.354903 2.99429e-06 -0.934903 -0.354903 2.99429e-06 -0.875149 -0.483853 -0 -0.875149 -0.483853 -0 -0.875149 -0.483853 -0 0.00999313 0.208865 -0.977893 0.00999313 0.208865 -0.977893 0.00999313 0.208865 -0.977893 0.893901 0.448265 -0 0.893901 0.448265 -0 0.893901 0.448265 -0 -0.0120378 -0.251634 0.967748 -0.0120378 -0.251634 0.967748 -0.0120378 -0.251634 0.967748 -0.139408 0.146573 -0.979327 -0.139408 0.146573 -0.979327 -0.139408 0.146573 -0.979327 -0.0820514 0.531507 -0.843071 -0.0820514 0.531507 -0.843071 -0.0820514 0.531507 -0.843071 0.910638 0.413205 -0 0.910638 0.413205 -0 0.910638 0.413205 -0 0.0858122 -0.555862 0.826833 0.0858122 -0.555862 0.826833 0.0858122 -0.555862 0.826833 0.011608 -0.999933 -0 0.011608 -0.999933 -0 0.011608 -0.999933 -0 -0.974153 0.225889 -0 -0.974153 0.225889 -0 -0.974153 0.225889 -0 -0.00155944 -0.14023 0.990118 -0.00155944 -0.14023 0.990118 -0.00155944 -0.14023 0.990118 0.96766 -0.252258 -0 0.96766 -0.252258 -0 0.96766 -0.252258 -0 0.742297 -0.670071 -0 0.742297 -0.670071 -0 0.742297 -0.670071 -0 -0.032603 -0.512445 0.858101 -0.032603 -0.512445 0.858101 -0.032603 -0.512445 0.858101 -0.760852 0.648926 -0 -0.760852 0.648926 -0 -0.760852 0.648926 -0 -0.0594523 0.540319 -0.839357 -0.0594523 0.540319 -0.839357 -0.0594523 0.540319 -0.839357 0 0.470982 0.882143 0 0.470982 0.882143 0 0.470982 0.882143 0.935316 -0.353813 -0 0.935316 -0.353813 -0 0.935316 -0.353813 -0 0 -0.483991 -0.875073 0 -0.483991 -0.875073 0 -0.483991 -0.875073 -0.941243 0.337732 -0 -0.941243 0.337732 -0 -0.941243 0.337732 -0 -0.88816 0.459535 -0 -0.88816 0.459535 -0 -0.88816 0.459535 -0 0 -0.128404 -0.991722 0 -0.128404 -0.991722 0 -0.128404 -0.991722 0.889741 -0.456465 -0 0.889741 -0.456465 -0 0.889741 -0.456465 -0 0 0.132663 0.991161 0 0.132663 0.991161 0 0.132663 0.991161 0 -1 -0 0 -1 -0 0 -1 -0 0 1 -0 0 1 -0 0 1 -0 0 -0.51447 0.857509 0 -0.51447 0.857509 0 -0.51447 0.857509 0.930288 0.36683 -0 0.930288 0.36683 -0 0.930288 0.36683 -0 0 0.520334 -0.853963 0 0.520334 -0.853963 0 0.520334 -0.853963 -0.934904 -0.354901 -0 -0.934904 -0.354901 -0 -0.934904 -0.354901 -0 -0.875149 -0.483854 -0 -0.875149 -0.483854 -0 -0.875149 -0.483854 -0 -0.0294613 0.190834 -0.98118 -0.0294613 0.190834 -0.98118 -0.0294613 0.190834 -0.98118 0.8939 0.448267 -0 0.8939 0.448267 -0 0.8939 0.448267 -0 0.035548 -0.230262 0.972479 0.035548 -0.230262 0.972479 0.035548 -0.230262 0.972479 0.00193161 0.109102 -0.994029 0.00193161 0.109102 -0.994029 0.00193161 0.109102 -0.994029 -0.0820557 0.531506 -0.843071 -0.0820557 0.531506 -0.843071 -0.0820557 0.531506 -0.843071 0.910639 0.413203 -0 0.910639 0.413203 -0 0.910639 0.413203 -0 0.0858166 -0.555862 0.826833 0.0858166 -0.555862 0.826833 0.0858166 -0.555862 0.826833 0.0115552 -0.999933 -0 0.0115552 -0.999933 -0 0.0115552 -0.999933 -0 -0.974153 0.22589 -0 -0.974153 0.22589 -0 -0.974153 0.22589 -0 0.127746 -0.174044 0.976417 0.127746 -0.174044 0.976417 0.127746 -0.174044 0.976417 0.967661 -0.252255 -0 0.967661 -0.252255 -0 0.967661 -0.252255 -0 0.742293 -0.670075 -0 0.742293 -0.670075 -0 0.742293 -0.670075 -0 0.0524581 -0.568413 0.821069 0.0524581 -0.568413 0.821069 0.0524581 -0.568413 0.821069 -0.760852 0.648925 -0 -0.760852 0.648925 -0 -0.760852 0.648925 -0 0.0191062 0.48665 -0.873388 0.0191062 0.48665 -0.873388 0.0191062 0.48665 -0.873388 0.022236 0.464669 0.885206 0.022236 0.464669 0.885206 0.022236 0.464669 0.885206 0.935297 -0.353864 -0 0.935297 -0.353864 -0 0.935297 -0.353864 -0 -0.022849 -0.477596 -0.878283 -0.022849 -0.477596 -0.878283 -0.022849 -0.477596 -0.878283 -0.941241 0.337736 -0 -0.941241 0.337736 -0 -0.941241 0.337736 -0 </float_array>
     <technique_common>
      <accessor source="#ID31-array" count="180" stride="3">
       <param name="X" type="float"/>
       <param name="Y" type="float"/>
       <param name="Z" type="float"/>
      </accessor>
     </technique_common>
    </source>
    <source id="geometrySource32">
     <float_array id="ID33-array" count="360">0.625 0 0.5 0.25 0.5 0 0.625 0.25 0.5 0.5 0.5 0.25 0.5 0.5 0.625 0.75 0.5 0.75 0.5 0.75 0.625 1 0.5 1 0.375 0.5 0.125 0.75 0.125 0.5 0.875 0.5 0.625 0.75 0.625 0.5 0.5 0.75 0.452505 1 0.452505 0.75 0.5 0.5 0.452505 0.75 0.452505 0.5 0.452505 0.25 0.5 0.5 0.452505 0.5 0.452505 0 0.5 0.25 0.452505 0.25 0.412457 0 0.4375 0.25 0.412457 0.25 0.412457 0.25 0.4375 0.5 0.412457 0.5 0.4375 0.5 0.412457 0.75 0.412457 0.5 0.4375 0.75 0.412457 1 0.412457 0.75 0.4375 0.25 0.452505 0.25 0.452505 0.25 0.4375 0.25 0.452505 0.5 0.4375 0.5 0.452505 0.5 0.4375 0.75 0.4375 0.5 0.452505 0.75 0.4375 1 0.4375 0.75 0.452505 0 0.4375 0.25 0.4375 0 0.452505 0.25 0.452505 0 0.452505 0 0.4375 1 0.452505 1 0.4375 1 0.4375 0.25 0.4375 0 0.4375 0.25 0.4375 0.25 0.4375 0 0.4375 0.25 0.4375 1 0.452505 1 0.4375 1 0.452505 0.25 0.452505 0 0.452505 0 0.4375 0.25 0.452505 0.25 0.452505 0.25 0.375 0.75 0.412457 1 0.375 1 0.375 0.5 0.412457 0.75 0.375 0.75 0.412457 0.25 0.375 0.5 0.375 0.25 0.412457 0 0.375 0.25 0.375 0 0.625 0 0.625 0.25 0.5 0.25 0.625 0.25 0.625 0.5 0.5 0.5 0.5 0.5 0.625 0.5 0.625 0.75 0.5 0.75 0.625 0.75 0.625 1 0.375 0.5 0.375 0.75 0.125 0.75 0.875 0.5 0.875 0.75 0.625 0.75 0.5 0.75 0.5 1 0.452505 1 0.5 0.5 0.5 0.75 0.452505 0.75 0.452505 0.25 0.5 0.25 0.5 0.5 0.452505 0 0.5 0 0.5 0.25 0.412457 0 0.4375 0 0.4375 0.25 0.412457 0.25 0.4375 0.25 0.4375 0.5 0.4375 0.5 0.4375 0.75 0.412457 0.75 0.4375 0.75 0.4375 1 0.412457 1 0.4375 0.25 0.4375 0.25 0.452505 0.25 0.4375 0.25 0.452505 0.25 0.452505 0.5 0.452505 0.5 0.452505 0.75 0.4375 0.75 0.452505 0.75 0.452505 1 0.4375 1 0.452505 0 0.452505 0.25 0.4375 0.25 0.452505 0.25 0.452505 0.25 0.452505 0 0.4375 1 0.452505 1 0.452505 1 0.4375 0.25 0.4375 0 0.4375 0 0.4375 0.25 0.4375 0 0.4375 0 0.4375 1 0.452505 1 0.452505 1 0.452505 0.25 0.452505 0.25 0.452505 0 0.4375 0.25 0.4375 0.25 0.452505 0.25 0.375 0.75 0.412457 0.75 0.412457 1 0.375 0.5 0.412457 0.5 0.412457 0.75 0.412457 0.25 0.412457 0.5 0.375 0.5 0.412457 0 0.412457 0.25 0.375 0.25 </float_array>
     <technique_common>
      <accessor source="#ID33-array" count="180" stride="2">
       <param name="S" type="float"/>
       <param name="T" type="float"/>
      </accessor>
     </technique_common>
    </source>
    <vertices id="geometrySource28-vertices">
     <input semantic="POSITION" source="#geometrySource28"/>
     <input semantic="NORMAL" source="#geometrySource30"/>
    </vertices>
    <triangles count="60" material="geometryElement34">
     <input semantic="VERTEX" offset="0" source="#geometrySource28-vertices"/>
     <input semantic="NORMAL" offset="0" source="#geometrySource30"/>
     <input semantic="TEXCOORD" offset="0" source="#geometrySource32" set="1"/>
     <p>0 1 2 3 4 5 6 7 8 9 10 11 12 13 14 15 16 17 18 19 20 21 22 23 24 25 26 27 28 29 30 31 32 33 34 35 36 37 38 39 40 41 42 43 44 45 46 47 48 49 50 51 52 53 54 55 56 57 58 59 60 61 62 63 64 65 66 67 68 69 70 71 72 73 74 75 76 77 78 79 80 81 82 83 84 85 86 87 88 89 90 91 92 93 94 95 96 97 98 99 100 101 102 103 104 105 106 107 108 109 110 111 112 113 114 115 116 117 118 119 120 121 122 123 124 125 126 127 128 129 130 131 132 133 134 135 136 137 138 139 140 141 142 143 144 145 146 147 148 149 150 151 152 153 154 155 156 157 158 159 160 161 162 163 164 165 166 167 168 169 170 171 172 173 174 175 176 177 178 179 </p>
    </triangles>
   </mesh>
  </geometry>
  <geometry id="geometry35">
   <mesh>
    <source id="geometrySource36">
     <float_array id="ID37-array" count="540">-0.869676 0 0.118754 -2.09123 -2.35528 0.183271 -2.09123 -2.35528 0.436926 -0.869676 0 -0.118754 -1.83757 -2.35528 0.183271 -2.09123 -2.35528 0.183271 -1.83757 -2.35528 0.183271 -0.632168 0 0.118754 -1.83757 -2.35528 0.436926 -1.83757 -2.35528 0.436926 -0.869676 0 0.118754 -2.09123 -2.35528 0.436926 -1.56296 -6 0.339904 -1.57594 -6 0.352887 -1.57594 -6 0.339904 -0.869676 0 -0.118754 -0.632168 0 0.118754 -0.632168 0 -0.118754 -1.83757 -2.35528 0.436926 -1.78902 -3.1768 -0.00928438 -1.52456 -3.13598 -0.00928438 -1.83757 -2.35528 0.183271 -1.52456 -3.13598 -0.00928438 -1.52456 -3.13598 -0.276877 -1.78902 -3.1768 -0.276877 -1.83757 -2.35528 0.183271 -1.52456 -3.13598 -0.276877 -1.78902 -3.1768 -0.00928438 -2.09123 -2.35528 0.183271 -1.78902 -3.1768 -0.276877 -1.04917 -4.42437 -0.449287 -1.69492 -3.36446 -0.40434 -1.04917 -4.42437 -0.568339 -1.04917 -4.42437 -0.568339 -1.43882 -3.32492 -0.40434 -0.930332 -4.43005 -0.568339 -1.43882 -3.32492 -0.40434 -0.930332 -4.43005 -0.449287 -0.930332 -4.43005 -0.568339 -1.43882 -3.32492 -0.145206 -1.04917 -4.42437 -0.449287 -0.930332 -4.43005 -0.449287 -2.60757 -4.33079 -0.937658 -2.80105 -4.90685 -0.965029 -2.68867 -4.29811 -0.921222 -1.69492 -3.36446 -0.40434 -1.52456 -3.13598 -0.276877 -1.43882 -3.32492 -0.40434 -1.52456 -3.13598 -0.276877 -1.43882 -3.32492 -0.145206 -1.43882 -3.32492 -0.40434 -1.52456 -3.13598 -0.00928438 -1.69492 -3.36446 -0.145206 -1.43882 -3.32492 -0.145206 -2.80105 -4.90685 -0.949518 -2.78681 -4.90668 -0.964984 -2.78681 -4.90668 -0.949472 -2.68867 -4.29811 -0.921222 -2.80105 -4.90685 -0.949518 -2.68867 -4.29811 -0.823738 -2.60757 -4.33079 -0.840174 -2.80105 -4.90685 -0.949518 -2.78681 -4.90668 -0.949472 -2.60757 -4.33079 -0.937658 -2.78681 -4.90668 -0.949472 -2.78681 -4.90668 -0.964984 -1.69492 -3.36446 -0.40434 -2.60757 -4.33079 -0.840174 -2.60757 -4.33079 -0.937658 -1.69492 -3.36446 -0.145206 -2.68867 -4.29811 -0.823738 -2.60757 -4.33079 -0.840174 -1.78902 -3.1768 -0.276877 -2.68867 -4.29811 -0.823738 -1.78902 -3.1768 -0.00928438 -1.69492 -3.36446 -0.40434 -2.68867 -4.29811 -0.921222 -1.78902 -3.1768 -0.276877 -1.56296 -6 0.352887 -1.04917 -4.42437 -0.449287 -1.57594 -6 0.352887 -1.56296 -6 0.339904 -0.930332 -4.43005 -0.449287 -1.56296 -6 0.352887 -1.04917 -4.42437 -0.568339 -1.56296 -6 0.339904 -1.57594 -6 0.339904 -1.04917 -4.42437 -0.449287 -1.57594 -6 0.339904 -1.57594 -6 0.352887 -0.869676 0 0.118754 -0.869676 0 -0.118754 -2.09123 -2.35528 0.183271 -0.869676 0 -0.118754 -0.632168 0 -0.118754 -1.83757 -2.35528 0.183271 -1.83757 -2.35528 0.183271 -0.632168 0 -0.118754 -0.632168 0 0.118754 -1.83757 -2.35528 0.436926 -0.632168 0 0.118754 -0.869676 0 0.118754 -1.56296 -6 0.339904 -1.56296 -6 0.352887 -1.57594 -6 0.352887 -0.869676 0 -0.118754 -0.869676 0 0.118754 -0.632168 0 0.118754 -1.83757 -2.35528 0.436926 -2.09123 -2.35528 0.436926 -1.78902 -3.1768 -0.00928438 -1.83757 -2.35528 0.183271 -1.83757 -2.35528 0.436926 -1.52456 -3.13598 -0.00928438 -1.78902 -3.1768 -0.276877 -2.09123 -2.35528 0.183271 -1.83757 -2.35528 0.183271 -1.78902 -3.1768 -0.00928438 -2.09123 -2.35528 0.436926 -2.09123 -2.35528 0.183271 -1.04917 -4.42437 -0.449287 -1.69492 -3.36446 -0.145206 -1.69492 -3.36446 -0.40434 -1.04917 -4.42437 -0.568339 -1.69492 -3.36446 -0.40434 -1.43882 -3.32492 -0.40434 -1.43882 -3.32492 -0.40434 -1.43882 -3.32492 -0.145206 -0.930332 -4.43005 -0.449287 -1.43882 -3.32492 -0.145206 -1.69492 -3.36446 -0.145206 -1.04917 -4.42437 -0.449287 -2.60757 -4.33079 -0.937658 -2.78681 -4.90668 -0.964984 -2.80105 -4.90685 -0.965029 -1.69492 -3.36446 -0.40434 -1.78902 -3.1768 -0.276877 -1.52456 -3.13598 -0.276877 -1.52456 -3.13598 -0.276877 -1.52456 -3.13598 -0.00928438 -1.43882 -3.32492 -0.145206 -1.52456 -3.13598 -0.00928438 -1.78902 -3.1768 -0.00928438 -1.69492 -3.36446 -0.145206 -2.80105 -4.90685 -0.949518 -2.80105 -4.90685 -0.965029 -2.78681 -4.90668 -0.964984 -2.68867 -4.29811 -0.921222 -2.80105 -4.90685 -0.965029 -2.80105 -4.90685 -0.949518 -2.60757 -4.33079 -0.840174 -2.68867 -4.29811 -0.823738 -2.80105 -4.90685 -0.949518 -2.60757 -4.33079 -0.937658 -2.60757 -4.33079 -0.840174 -2.78681 -4.90668 -0.949472 -1.69492 -3.36446 -0.40434 -1.69492 -3.36446 -0.145206 -2.60757 -4.33079 -0.840174 -1.69492 -3.36446 -0.145206 -1.78902 -3.1768 -0.00928438 -2.68867 -4.29811 -0.823738 -1.78902 -3.1768 -0.276877 -2.68867 -4.29811 -0.921222 -2.68867 -4.29811 -0.823738 -1.69492 -3.36446 -0.40434 -2.60757 -4.33079 -0.937658 -2.68867 -4.29811 -0.921222 -1.56296 -6 0.352887 -0.930332 -4.43005 -0.449287 -1.04917 -4.42437 -0.449287 -1.56296 -6 0.339904 -0.930332 -4.43005 -0.568339 -0.930332 -4.43005 -0.449287 -1.04917 -4.42437 -0.568339 -0.930332 -4.43005 -0.568339 -1.56296 -6 0.339904 -1.04917 -4.42437 -0.449287 -1.04917 -4.42437 -0.568339 -1.57594 -6 0.339904 </float_array>
     <technique_common>
      <accessor source="#ID37-array" count="180" stride="3">
       <param name="X" type="float"/>
       <param name="Y" type="float"/>
       <param name="Z" type="float"/>
      </accessor>
     </technique_common>
    </source>
    <source id="geometrySource38">
     <float_array id="ID39-array" count="540">-0.887709 0.460405 -0 -0.887709 0.460405 -0 -0.887709 0.460405 -0 0 -0.127192 -0.991878 0 -0.127192 -0.991878 0 -0.127192 -0.991878 0.89019 -0.455589 -0 0.89019 -0.455589 -0 0.89019 -0.455589 -0 0 0.133873 0.990999 0 0.133873 0.990999 0 0.133873 0.990999 0 -1 -0 0 -1 -0 0 -1 -0 0 1 -0 0 1 -0 0 1 -0 0.0729737 -0.472683 0.878206 0.0729737 -0.472683 0.878206 0.0729737 -0.472683 0.878206 0.928176 0.372142 -0 0.928176 0.372142 -0 0.928176 0.372142 -0 -0.0747131 0.483948 -0.871902 -0.0747131 0.483948 -0.871902 -0.0747131 0.483948 -0.871902 -0.938513 -0.345243 -0 -0.938513 -0.345243 -0 -0.938513 -0.345243 -0 -0.853987 -0.520295 -0 -0.853987 -0.520295 -0 -0.853987 -0.520295 -0 0.00717664 0.150016 -0.988658 0.00717664 0.150016 -0.988658 0.00717664 0.150016 -0.988658 0.90845 0.417994 -0 0.90845 0.417994 -0 0.90845 0.417994 -0 -0.0129557 -0.270809 0.962546 -0.0129557 -0.270809 0.962546 -0.0129557 -0.270809 0.962546 -0.15877 0.0999963 -0.982239 -0.15877 0.0999963 -0.982239 -0.15877 0.0999963 -0.982239 -0.0820527 0.531506 -0.843071 -0.0820527 0.531506 -0.843071 -0.0820527 0.531506 -0.843071 0.910638 0.413206 -0 0.910638 0.413206 -0 0.910638 0.413206 -0 0.0858138 -0.555863 0.826833 0.0858138 -0.555863 0.826833 0.0858138 -0.555863 0.826833 0.0115378 -0.999934 -0 0.0115378 -0.999934 -0 0.0115378 -0.999934 -0 -0.983384 0.181539 -0 -0.983384 0.181539 -0 -0.983384 0.181539 -0 -0.00100923 -0.186154 0.98252 -0.00100923 -0.186154 0.98252 -0.00100923 -0.186154 0.98252 0.954823 -0.297177 -0 0.954823 -0.297177 -0 0.954823 -0.297177 -0 0.72701 -0.686627 -0 0.72701 -0.686627 -0 0.72701 -0.686627 -0 -0.0526235 -0.549827 0.833619 -0.0526235 -0.549827 0.833619 -0.0526235 -0.549827 0.833619 -0.779981 0.625803 -0 -0.779981 0.625803 -0 -0.779981 0.625803 -0 -0.0674536 0.537237 -0.84073 -0.0674536 0.537237 -0.84073 -0.0674536 0.537237 -0.84073 0 0.453696 0.891156 0 0.453696 0.891156 0 0.453696 0.891156 0.927536 -0.373735 -0 0.927536 -0.373735 -0 0.927536 -0.373735 -0 0 -0.4994 -0.866372 0 -0.4994 -0.866372 0 -0.4994 -0.866372 -0.9484 0.317075 -0 -0.9484 0.317075 -0 -0.9484 0.317075 -0 -0.887709 0.460405 -0 -0.887709 0.460405 -0 -0.887709 0.460405 -0 0 -0.127192 -0.991878 0 -0.127192 -0.991878 0 -0.127192 -0.991878 0.89019 -0.455589 -0 0.89019 -0.455589 -0 0.89019 -0.455589 -0 0 0.133873 0.990999 0 0.133873 0.990999 0 0.133873 0.990999 0 -1 -0 0 -1 -0 0 -1 -0 0 1 -0 0 1 -0 0 1 -0 0 -0.477289 0.878747 0 -0.477289 0.878747 0 -0.477289 0.878747 0.928176 0.372143 -0 0.928176 0.372143 -0 0.928176 0.372143 -0 0 0.488678 -0.872464 0 0.488678 -0.872464 0 0.488678 -0.872464 -0.938513 -0.345243 -0 -0.938513 -0.345243 -0 -0.938513 -0.345243 -0 -0.853987 -0.520295 -4.52311e-07 -0.853987 -0.520295 -4.52311e-07 -0.853987 -0.520295 -4.52311e-07 -0.0216135 0.14 -0.989916 -0.0216135 0.14 -0.989916 -0.0216135 0.14 -0.989916 0.90845 0.417994 -0 0.90845 0.417994 -0 0.90845 0.417994 -0 0.0391285 -0.253458 0.966555 0.0391285 -0.253458 0.966555 0.0391285 -0.253458 0.966555 0.00266957 0.0465633 -0.998912 0.00266957 0.0465633 -0.998912 0.00266957 0.0465633 -0.998912 -0.0820557 0.531507 -0.84307 -0.0820557 0.531507 -0.84307 -0.0820557 0.531507 -0.84307 0.910638 0.413206 -0 0.910638 0.413206 -0 0.910638 0.413206 -0 0.0858158 -0.555864 0.826832 0.0858158 -0.555864 0.826832 0.0858158 -0.555864 0.826832 0.0115267 -0.999934 -0 0.0115267 -0.999934 -0 0.0115267 -0.999934 -0 -0.983384 0.181537 -0 -0.983384 0.181537 -0 -0.983384 0.181537 -0 0.107744 -0.220207 0.969485 0.107744 -0.220207 0.969485 0.107744 -0.220207 0.969485 0.954823 -0.297175 -0 0.954823 -0.297175 -0 0.954823 -0.297175 -0 0.72701 -0.686627 -0 0.72701 -0.686627 -0 0.72701 -0.686627 -0 -0.00125659 -0.58702 0.809572 -0.00125659 -0.58702 0.809572 -0.00125659 -0.58702 0.809572 -0.779982 0.625802 -0 -0.779982 0.625802 -0 -0.779982 0.625802 -0 0.0125882 0.474019 -0.880424 0.0125882 0.474019 -0.880424 0.0125882 0.474019 -0.880424 0.0214339 0.448034 0.893759 0.0214339 0.448034 0.893759 0.0214339 0.448034 0.893759 0.927527 -0.373756 -0 0.927527 -0.373756 -0 0.927527 -0.373756 -0 -0.0236108 -0.493474 -0.86944 -0.0236108 -0.493474 -0.86944 -0.0236108 -0.493474 -0.86944 -0.948401 0.317072 -0 -0.948401 0.317072 -0 -0.948401 0.317072 -0 </float_array>
     <technique_common>
      <accessor source="#ID39-array" count="180" stride="3">
       <param name="X" type="float"/>
       <param name="Y" type="float"/>
       <param name="Z" type="float"/>
      </accessor>
     </technique_common>
    </source>
    <source id="geometrySource40">
     <float_array id="ID41-array" count="360">0.625 0 0.5 0.25 0.5 0 0.625 0.25 0.5 0.5 0.5 0.25 0.5 0.5 0.625 0.75 0.5 0.75 0.5 0.75 0.625 1 0.5 1 0.375 0.5 0.125 0.75 0.125 0.5 0.875 0.5 0.625 0.75 0.625 0.5 0.5 0.75 0.452505 1 0.452505 0.75 0.5 0.5 0.452505 0.75 0.452505 0.5 0.452505 0.25 0.5 0.5 0.452505 0.5 0.452505 0 0.5 0.25 0.452505 0.25 0.412457 0 0.4375 0.25 0.412457 0.25 0.412457 0.25 0.4375 0.5 0.412457 0.5 0.4375 0.5 0.412457 0.75 0.412457 0.5 0.4375 0.75 0.412457 1 0.412457 0.75 0.4375 0.25 0.452505 0.25 0.452505 0.25 0.4375 0.25 0.452505 0.5 0.4375 0.5 0.452505 0.5 0.4375 0.75 0.4375 0.5 0.452505 0.75 0.4375 1 0.4375 0.75 0.452505 0 0.4375 0.25 0.4375 0 0.452505 0.25 0.452505 0 0.452505 0 0.4375 1 0.452505 1 0.4375 1 0.4375 0.25 0.4375 0 0.4375 0.25 0.4375 0.25 0.4375 0 0.4375 0.25 0.4375 1 0.452505 1 0.4375 1 0.452505 0.25 0.452505 0 0.452505 0 0.4375 0.25 0.452505 0.25 0.452505 0.25 0.375 0.75 0.412457 1 0.375 1 0.375 0.5 0.412457 0.75 0.375 0.75 0.412457 0.25 0.375 0.5 0.375 0.25 0.412457 0 0.375 0.25 0.375 0 0.625 0 0.625 0.25 0.5 0.25 0.625 0.25 0.625 0.5 0.5 0.5 0.5 0.5 0.625 0.5 0.625 0.75 0.5 0.75 0.625 0.75 0.625 1 0.375 0.5 0.375 0.75 0.125 0.75 0.875 0.5 0.875 0.75 0.625 0.75 0.5 0.75 0.5 1 0.452505 1 0.5 0.5 0.5 0.75 0.452505 0.75 0.452505 0.25 0.5 0.25 0.5 0.5 0.452505 0 0.5 0 0.5 0.25 0.412457 0 0.4375 0 0.4375 0.25 0.412457 0.25 0.4375 0.25 0.4375 0.5 0.4375 0.5 0.4375 0.75 0.412457 0.75 0.4375 0.75 0.4375 1 0.412457 1 0.4375 0.25 0.4375 0.25 0.452505 0.25 0.4375 0.25 0.452505 0.25 0.452505 0.5 0.452505 0.5 0.452505 0.75 0.4375 0.75 0.452505 0.75 0.452505 1 0.4375 1 0.452505 0 0.452505 0.25 0.4375 0.25 0.452505 0.25 0.452505 0.25 0.452505 0 0.4375 1 0.452505 1 0.452505 1 0.4375 0.25 0.4375 0 0.4375 0 0.4375 0.25 0.4375 0 0.4375 0 0.4375 1 0.452505 1 0.452505 1 0.452505 0.25 0.452505 0.25 0.452505 0 0.4375 0.25 0.4375 0.25 0.452505 0.25 0.375 0.75 0.412457 0.75 0.412457 1 0.375 0.5 0.412457 0.5 0.412457 0.75 0.412457 0.25 0.412457 0.5 0.375 0.5 0.412457 0 0.412457 0.25 0.375 0.25 </float_array>
     <technique_common>
      <accessor source="#ID41-array" count="180" stride="2">
       <param name="S" type="float"/>
       <param name="T" type="float"/>
      </accessor>
     </technique_common>
    </source>
    <vertices id="geometrySource36-vertices">
     <input semantic="POSITION" source="#geometrySource36"/>
     <input semantic="NORMAL" source="#geometrySource38"/>
    </vertices>
    <triangles count="60" material="geometryElement42">
     <input semantic="VERTEX" offset="0" source="#geometrySource36-vertices"/>
     <input semantic="NORMAL" offset="0" source="#geometrySource38"/>
     <input semantic="TEXCOORD" offset="0" source="#geometrySource40" set="1"/>
     <p>0 1 2 3 4 5 6 7 8 9 10 11 12 13 14 15 16 17 18 19 20 21 22 23 24 25 26 27 28 29 30 31 32 33 34 35 36 37 38 39 40 41 42 43 44 45 46 47 48 49 50 51 52 53 54 55 56 57 58 59 60 61 62 63 64 65 66 67 68 69 70 71 72 73 74 75 76 77 78 79 80 81 82 83 84 85 86 87 88 89 90 91 92 93 94 95 96 97 98 99 100 101 102 103 104 105 106 107 108 109 110 111 112 113 114 115 116 117 118 119 120 121 122 123 124 125 126 127 128 129 130 131 132 133 134 135 136 137 138 139 140 141 142 143 144 145 146 147 148 149 150 151 152 153 154 155 156 157 158 159 160 161 162 163 164 165 166 167 168 169 170 171 172 173 174 175 176 177 178 179 </p>
    </triangles>
   </mesh>
  </geometry>
 </library_geometries>
 <library_visual_scenes>
  <visual_scene id="scene43">
   <node id="bolt3" name="bolt3">
    <matrix sid="SID_1">-0.0005000002 0 -0.0008660262 0 -0 0.001 0 1000 0.0008660262 0 -0.0005000002 0 0 0 0 1 </matrix>
    <instance_geometry url="#geometry27"/>
   </node>
   <node id="bolt2" name="bolt2">
    <matrix sid="SID_2">-0.0005000002 0 -0.0008660262 0 -0 0.001 0 1000 0.0008660262 0 -0.0005000002 0 0 0 0 1 </matrix>
    <instance_geometry url="#geometry35"/>
   </node>
   <node id="bolt1" name="bolt1">
    <matrix sid="SID_3">-0.0005000002 0 -0.0008660262 0 -0 0.001 0 1000 0.0008660262 0 -0.0005000002 0 0 0 0 1 </matrix>
    <instance_geometry url="#geometry19"/>
   </node>
  </visual_scene>
 </library_visual_scenes>
 <scene>
  <instance_visual_scene url="#scene43"/>
 </scene>
</COLLADA>
