<?xml version="1.0" encoding="UTF-8"?>
<COLLADA xmlns="http://www.collada.org/2005/11/COLLADASchema" version="1.4.1">
 <asset>
  <contributor>
   <authoring_tool>SceneKit Collada Exporter v1.0</authoring_tool>
  </contributor>
  <created>2026-04-02T01:34:05Z</created>
  <modified>2026-04-02T01:34:05Z</modified>
  <unit meter="1.000000"/>
  <up_axis>Y_UP</up_axis>
 </asset>
 <library_animations>
  <animation id="action_container-wind-line-1_002" name="action_container-wind-line-1_002">
   <animation id="keyframedAnimations1">
    <source id="genericSource2">
     <float_array id="action_container-wind-line-1_0023-array" count="31">0 0.0333333 0.0666667 0.1 0.133333 0.166667 0.2 0.233333 0.266667 0.3 0.333333 0.366667 0.4 0.433333 0.466667 0.5 0.533333 0.566667 0.6 0.633333 0.666667 0.7 0.733333 0.766667 0.8 0.833333 0.866667 0.9 0.933333 0.966667 1 </float_array>
     <technique_common>
      <accessor source="#action_container-wind-line-1_0023-array" count="31" stride="1">
       <param name="TIME" type="float"/>
      </accessor>
     </technique_common>
    </source>
    <source id="genericSource4">
     <float_array id="action_container-wind-line-1_0025-array" count="496">3.49995e-09 0.000116791 -0.00999932 29.7381 -1.86264e-11 0.00999932 0.000116791 0.0976828 0.01 -1.86265e-11 3.57628e-09 1.31245e-08 0 0 0 1 4.73968e-08 -0.00622863 -0.133605 27.2019 2.49129e-10 0.133605 -0.00622863 -0.0707878 0.13375 1.7439e-09 4.78328e-08 3.01091e-08 0 0 0 1 6.69685e-08 -0.026975 -0.256083 24.6656 2.87779e-09 0.256083 -0.026975 -0.239258 0.2575 2.87778e-09 6.13927e-08 4.70937e-08 0 0 0 1 1.454e-07 -0.0558077 -0.377143 22.1293 2.84053e-09 0.377143 -0.0558077 -0.675453 0.38125 1.70432e-08 1.36346e-07 6.40783e-08 0 0 0 1 -1.81543e-07 -0.0947952 -0.496023 19.593 -7.52509e-09 0.496023 -0.0947953 -1.11165 0.505 -1.88127e-08 -1.80602e-07 8.1063e-08 0 0 0 1 8.54931e-08 -0.10472 -0.619968 17.0567 9.36911e-09 0.619968 -0.10472 -1.51313 0.62875 9.3691e-09 7.49528e-08 9.80476e-08 0 0 0 1 7.70902e-09 -0.109326 -0.744516 14.5205 0 0.744516 -0.109326 -1.91461 0.7525 0 0 1.15032e-07 0 0 0 1 1.96877e-08 -0.067676 -0.873633 11.9842 0 0.873633 -0.067676 -1.94128 0.87625 0 0 1.32017e-07 0 0 0 1 1.1073e-06 -0.00886222 -0.99996 9.44792 2.3283e-09 0.999961 -0.00886222 -1.96795 0.999999 6.98492e-09 1.13249e-06 1.49001e-07 0 0 0 1 -2.3382e-07 0.0607368 -0.998155 6.91163 -2.79397e-08 0.998153 0.0607368 -1.60991 1 3.91155e-08 -2.38419e-07 1.65986e-07 0 0 0 1 8.86153e-07 0.130216 -0.991485 4.37535 2.23517e-08 0.991486 0.130216 -1.25186 0.999999 -1.2666e-07 8.94069e-07 1.82971e-07 0 0 0 1 3.70666e-07 0.191634 -0.981466 1.83908 -1.49012e-08 0.981466 0.191634 -0.580483 1 -5.2154e-08 3.57628e-07 1.99955e-07 0 0 0 1 7.82311e-08 0.2522 -0.967674 -0.697201 2.98023e-08 0.967674 0.2522 0.0908971 1 -5.96046e-08 5.96046e-08 2.1694e-07 0 0 0 1 1.47149e-07 0.248895 -0.96853 -3.23348 3.72529e-08 0.96853 0.248895 0.735996 1 -6.70552e-08 1.19209e-07 2.33924e-07 0 0 0 1 -1.10827e-07 0.245596 -0.969372 -5.76976 7.45058e-09 0.969372 0.245596 1.38109 1 7.45058e-09 -1.19209e-07 2.50909e-07 0 0 0 1 2.85916e-07 0.20632 -0.978484 -7.28372 -2.23517e-08 0.978485 0.20632 1.5498 0.999999 -2.23517e-08 2.98023e-07 2.35194e-07 0 0 0 1 4.2282e-07 0.166577 -0.986028 -8.79769 -2.23517e-08 0.986028 0.166577 1.71851 1 -5.21541e-08 4.17232e-07 2.19479e-07 0 0 0 1 -9.35979e-08 0.126461 -0.991971 -10.3116 7.45058e-09 0.991971 0.126461 1.78806 1 7.45058e-09 -1.19209e-07 2.03764e-07 0 0 0 1 4.05358e-07 0.0860698 -0.996289 -11.8256 -1.86264e-08 0.996289 0.0860698 1.85761 1 -1.86264e-08 4.17232e-07 1.88049e-07 0 0 0 1 8.46339e-08 0.0387076 -0.99925 -13.3396 9.31322e-09 0.99925 0.0387075 1.78157 0.999999 -9.31322e-09 5.96046e-08 1.72334e-07 0 0 0 1 2.07037e-08 -0.00872981 -0.999961 -14.8535 0 0.999961 -0.00872981 1.70553 1 0 0 1.56619e-07 0 0 0 1 -8.51578e-08 -0.0560823 -0.998426 -16.3675 -1.86265e-09 0.998426 -0.0560823 1.53237 1 -1.86265e-09 -5.96046e-08 1.40904e-07 0 0 0 1 2.77069e-07 -0.103191 -0.994662 -17.8815 4.47035e-08 0.994662 -0.103191 1.35921 1 -7.45058e-09 2.98023e-07 1.25189e-07 0 0 0 1 6.61018e-08 -0.11966 -0.868041 -19.3954 0 0.868041 -0.11966 1.0846 0.87625 0 5.22286e-08 1.09474e-07 0 0 0 1 1.83965e-07 -0.127745 -0.741578 -20.9094 1.12131e-08 0.741578 -0.127745 0.809981 0.7525 2.24262e-08 1.7941e-07 9.37589e-08 0 0 0 1 4.47667e-07 -0.100011 -0.620744 -22.4234 1.40536e-08 0.620745 -0.100011 0.583924 0.628749 6.08992e-08 4.49717e-07 7.80438e-08 0 0 0 1 -5.93071e-07 -0.0749176 -0.499412 -23.9373 -2.25753e-08 0.499412 -0.0749176 0.357868 0.505 -5.26756e-08 -6.02007e-07 6.23288e-08 0 0 0 1 -8.87667e-09 -0.0398211 -0.379165 -25.4513 0 0.379165 -0.0398211 0.219886 0.38125 0 0 4.66138e-08 0 0 0 1 -3.19899e-07 -0.0155395 -0.257031 -26.9653 -2.87778e-09 0.25703 -0.0155395 0.0819045 0.2575 -1.39093e-08 -3.22312e-07 3.08988e-08 0 0 0 1 3.04365e-08 -0.00530143 -0.133645 -28.4792 -2.49128e-10 0.133645 -0.00530143 0.0876113 0.13375 1.7439e-09 3.18885e-08 1.51838e-08 0 0 0 1 1.44302e-08 -0.000189341 -0.00999819 -29.9932 5.58793e-11 0.00999821 -0.000189341 0.0933181 0.00999999 1.86265e-10 1.43051e-08 -5.31223e-10 0 0 0 1 </float_array>
     <technique_common>
      <accessor source="#action_container-wind-line-1_0025-array" count="31" stride="16">
       <param name="TRANSFORM" type="float4x4"/>
      </accessor>
     </technique_common>
    </source>
    <sampler id="action_container-wind-line-1_0026">
     <input semantic="INPUT" source="#genericSource2"/>
     <input semantic="OUTPUT" source="#genericSource4"/>
    </sampler>
    <channel source="#action_container-wind-line-1_0026" target="wind-line-1_002_Bone/SID_1"/>
   </animation>
   <animation id="keyframedAnimations7">
    <source id="genericSource8">
     <float_array id="action_container-wind-line-1_0029-array" count="31">0 0.0333333 0.0666667 0.1 0.133333 0.166667 0.2 0.233333 0.266667 0.3 0.333333 0.366667 0.4 0.433333 0.466667 0.5 0.533333 0.566667 0.6 0.633333 0.666667 0.7 0.733333 0.766667 0.8 0.833333 0.866667 0.9 0.933333 0.966667 1 </float_array>
     <technique_common>
      <accessor source="#action_container-wind-line-1_0029-array" count="31" stride="1">
       <param name="TIME" type="float"/>
      </accessor>
     </technique_common>
    </source>
    <source id="genericSource10">
     <float_array id="action_container-wind-line-1_00211-array" count="496">1 -1.2392e-11 1.82513e-09 9.09495e-13 -1.24016e-11 0.999908 0.013584 0 -1.82513e-09 -0.013584 0.999908 -6.00024 0 0 0 1 1 -5.46426e-11 3.83164e-09 -1.13687e-13 -5.46503e-11 0.999593 0.028518 -9.53672e-07 -3.83164e-09 -0.028518 0.999593 -6 0 0 0 1 1 -1.27027e-10 5.84114e-09 1.13687e-13 -1.27032e-10 0.999055 0.0434743 9.53674e-07 -5.84114e-09 -0.0434743 0.999055 -6 0 0 0 1 1 -1.28117e-10 5.8661e-09 0 -1.28121e-10 0.999046 0.0436601 9.53674e-07 -5.86611e-09 -0.0436601 0.999046 -6 0 0 0 1 1 -1.29206e-10 5.89098e-09 -3.81165e-20 -1.29209e-10 0.999038 0.0438452 -9.53672e-07 -5.89098e-09 -0.0438452 0.999038 -6 0 0 0 1 1 0 0 -2.84217e-14 0 1 0 4.76835e-07 0 0 1 -6 0 0 0 1 1 -1.36635e-10 -6.05794e-09 -2.84217e-14 -1.36642e-10 0.998983 -0.0450877 -4.76837e-07 6.05794e-09 0.0450877 0.998983 -6 0 0 0 1 1 -9.26797e-10 -1.5754e-08 3.4639e-14 -9.26806e-10 0.993102 -0.117253 3.57628e-07 1.5754e-08 0.117253 0.993102 -6 0 0 0 1 1 -2.41195e-09 -2.5344e-08 3.04932e-20 -2.41196e-09 0.982048 -0.188629 3.12639e-13 2.5344e-08 0.188629 0.982048 -6 0 0 0 1 1 -2.39157e-09 -2.52376e-08 -1.42109e-14 -2.39158e-09 0.9822 -0.187837 -1.19209e-07 2.52376e-08 0.187837 0.9822 -6 0 0 0 1 1 -2.37122e-09 -2.5131e-08 -5.68434e-14 -2.37123e-09 0.982352 -0.187044 1.19209e-07 2.5131e-08 0.187044 0.982352 -6 0 0 0 1 1 -1.90922e-09 -2.25699e-08 -5.0822e-20 -1.90923e-09 0.98579 -0.167982 1.19209e-07 2.25699e-08 0.167982 0.98579 -6 0 0 0 1 1 -1.4968e-09 -1.99994e-08 1.42109e-14 -1.4968e-09 0.98886 -0.148851 -1.19209e-07 1.99994e-08 0.148851 0.98886 -6 0 0 0 1 1 -3.82182e-10 -1.01269e-08 1.42109e-14 -3.82189e-10 0.997156 -0.075372 5.96045e-08 1.01269e-08 0.075372 0.997156 -6 0 0 0 1 1 -1.25777e-13 -1.85565e-10 -1.06581e-14 -1.30501e-13 0.999999 -0.00138107 -5.4948e-08 1.85565e-10 0.00138107 0.999999 -6 0 0 0 1 1 -2.16085e-10 7.61706e-09 -1.42109e-14 -2.16089e-10 0.998391 0.0566921 -2.98023e-08 -7.61706e-09 -0.0566921 0.998391 -6 0 0 0 1 1 -8.88708e-10 1.5428e-08 -5.32909e-15 -8.88711e-10 0.993386 0.114827 -5.32907e-14 -1.5428e-08 -0.114827 0.993386 -6 0 0 0 1 1 -1.17348e-09 1.77189e-08 3.55269e-15 -1.17349e-09 0.991266 0.131877 1.19209e-07 -1.77189e-08 -0.131877 0.991266 -6 0 0 0 1 1 -1.4976e-09 2.00047e-08 -1.42109e-14 -1.4976e-09 0.988853 0.14889 5.96046e-08 -2.00047e-08 -0.14889 0.988853 -6 0 0 0 1 1 -1.80442e-09 2.19459e-08 1.42109e-14 -1.80442e-09 0.98657 0.163338 0 -2.19459e-08 -0.163338 0.98657 -6 0 0 0 1 1 -2.13948e-09 2.38817e-08 0 -2.13948e-09 0.984076 0.177746 -2.23517e-08 -2.38817e-08 -0.177746 0.984076 -6 0 0 0 1 1 -2.50254e-09 2.58111e-08 5.68434e-14 -2.50253e-09 0.981374 0.192106 -1.78814e-07 -2.58111e-08 -0.192106 0.981374 -6 0 0 0 1 1 -2.89346e-09 2.77336e-08 5.68434e-14 -2.89346e-09 0.978465 0.206414 -3.2685e-13 -2.77336e-08 -0.206414 0.978465 -6 0 0 0 1 1 -1.67799e-09 2.11681e-08 1.01644e-19 -1.67798e-09 0.987511 0.157549 -2.38419e-07 -2.11681e-08 -0.157549 0.987511 -6 0 0 0 1 1 -7.88668e-10 1.45364e-08 0 -7.88662e-10 0.99413 0.108191 0 -1.45364e-08 -0.108191 0.99413 -6 0 0 0 1 1 -1.32286e-10 5.96063e-09 5.68434e-14 -1.3228e-10 0.999015 0.0443636 4.76837e-07 -5.96063e-09 -0.0443636 0.999015 -6 0 0 0 1 1 -2.56936e-11 -2.62733e-09 0 -2.56875e-11 0.999809 -0.0195545 4.76837e-07 2.62733e-09 0.0195545 0.999809 -6 0 0 0 1 1 -8.90494e-11 -4.89085e-09 0 -8.90431e-11 0.999337 -0.0364013 0 4.89085e-09 0.0364013 0.999337 -6 0 0 0 1 1 -1.90378e-10 -7.14988e-09 0 -1.90371e-10 0.998583 -0.0532148 1.7053e-12 7.14988e-09 0.0532148 0.998583 -6.00001 0 0 0 1 1 -7.88443e-12 -1.45517e-09 8.13149e-19 -7.87611e-12 0.999941 -0.0108304 9.53672e-07 1.45517e-09 0.0108304 0.999941 -5.99999 0 0 0 1 1 -6.67587e-11 4.23479e-09 4.54747e-13 -6.67488e-11 0.999503 0.0315185 0 -4.23479e-09 -0.0315185 0.999503 -6 0 0 0 1 </float_array>
     <technique_common>
      <accessor source="#action_container-wind-line-1_00211-array" count="31" stride="16">
       <param name="TRANSFORM" type="float4x4"/>
      </accessor>
     </technique_common>
    </source>
    <sampler id="action_container-wind-line-1_00212">
     <input semantic="INPUT" source="#genericSource8"/>
     <input semantic="OUTPUT" source="#genericSource10"/>
    </sampler>
    <channel source="#action_container-wind-line-1_00212" target="wind-line-1_002_Bone_001/SID_2"/>
   </animation>
   <animation id="keyframedAnimations13">
    <source id="genericSource14">
     <float_array id="action_container-wind-line-1_00215-array" count="31">0 0.0333333 0.0666667 0.1 0.133333 0.166667 0.2 0.233333 0.266667 0.3 0.333333 0.366667 0.4 0.433333 0.466667 0.5 0.533333 0.566667 0.6 0.633333 0.666667 0.7 0.733333 0.766667 0.8 0.833333 0.866667 0.9 0.933333 0.966667 1 </float_array>
     <technique_common>
      <accessor source="#action_container-wind-line-1_00215-array" count="31" stride="1">
       <param name="TIME" type="float"/>
      </accessor>
     </technique_common>
    </source>
    <source id="genericSource16">
     <float_array id="action_container-wind-line-1_00217-array" count="496">1 -4.4899e-11 -3.4736e-09 0 -4.49194e-11 0.999666 -0.0258532 0 3.4736e-09 0.0258532 0.999666 -5.99976 0 0 0 1 1 -2.51376e-11 2.59933e-09 0 -2.51542e-11 0.999813 0.0193462 2.38419e-07 -2.59933e-09 -0.0193462 0.999813 -6.00001 0 0 0 1 1 -2.80535e-10 8.678e-09 1.27055e-20 -2.80548e-10 0.997912 0.0645882 0 -8.678e-09 -0.0645882 0.997912 -5.99999 0 0 0 1 1 -5.28099e-10 1.19009e-08 5.68434e-14 -5.2811e-10 0.996069 0.0885756 0 -1.19009e-08 -0.0885756 0.996069 -6 0 0 0 1 1 -8.52948e-10 1.51154e-08 3.72694e-20 -8.52956e-10 0.993652 0.1125 -4.76836e-07 -1.51154e-08 -0.1125 0.993652 -6 0 0 0 1 1 -8.23974e-10 1.48573e-08 2.84217e-14 -8.23981e-10 0.993867 0.110579 0 -1.48573e-08 -0.110579 0.993867 -6 0 0 0 1 1 -7.95509e-10 1.45992e-08 2.84217e-14 -7.95515e-10 0.994079 0.108658 0 -1.45992e-08 -0.108658 0.994079 -6 0 0 0 1 1 -5.64997e-10 1.23088e-08 0 -5.65002e-10 0.995795 0.0916113 0 -1.23088e-08 -0.0916113 0.995795 -6 0 0 0 1 1 -3.73827e-10 1.00157e-08 0 -3.73831e-10 0.997218 0.0745447 0 -1.00157e-08 -0.0745447 0.997218 -6 0 0 0 1 1 -3.75715e-11 -3.17733e-09 4.26326e-14 -3.75769e-11 0.99972 -0.0236481 2.38419e-07 3.17733e-09 0.0236481 0.99972 -6 0 0 0 1 1 -1.00175e-09 -1.63763e-08 9.32586e-15 -1.00176e-09 0.992544 -0.121885 -5.96045e-08 1.63763e-08 0.121885 0.992544 -6 0 0 0 1 1 -1.53506e-09 -2.0252e-08 -7.10542e-15 -1.53507e-09 0.988575 -0.15073 8.94069e-08 2.0252e-08 0.15073 0.988575 -6 0 0 0 1 1 -2.17991e-09 -2.41045e-08 -7.10543e-15 -2.17991e-09 0.983775 -0.179404 0 2.41045e-08 0.179404 0.983775 -6 0 0 0 1 1 -1.96428e-09 -2.28906e-08 2.84217e-14 -1.96428e-09 0.98538 -0.170369 0 2.28906e-08 0.170369 0.98538 -6 0 0 0 1 1 -1.76012e-09 -2.16767e-08 2.4869e-14 -1.76012e-09 0.9869 -0.161334 0 2.16767e-08 0.161334 0.9869 -6 0 0 0 1 1 -1.3149e-09 -1.87512e-08 1.95399e-14 -1.31491e-09 0.990213 -0.139561 0 1.87513e-08 0.139561 0.990213 -6 0 0 0 1 1 -9.3332e-10 -1.58092e-08 3.55754e-20 -9.33326e-10 0.993054 -0.117664 -1.19209e-07 1.58092e-08 0.117664 0.993054 -6 0 0 0 1 1 -1.99562e-10 -7.3203e-09 1.42109e-14 -1.99567e-10 0.998515 -0.0544832 -1.49012e-07 7.3203e-09 0.0544832 0.998515 -6 0 0 0 1 1 -5.37863e-12 1.20254e-09 1.42109e-14 -5.38462e-12 0.99996 0.00895023 8.91741e-08 -1.20254e-09 -0.00895023 0.99996 -6 0 0 0 1 1 -2.43174e-10 8.08002e-09 -7.10543e-15 -2.43178e-10 0.99819 0.0601376 5.96046e-08 -8.08002e-09 -0.0601376 0.99819 -6 0 0 0 1 1 -8.32133e-10 1.49304e-08 -1.06581e-14 -8.32137e-10 0.993807 0.111123 -1.78814e-07 -1.49304e-08 -0.111123 0.993807 -6 0 0 0 1 1 -1.00213e-09 1.63794e-08 -3.55271e-15 -1.00214e-09 0.992541 0.121908 0 -1.63794e-08 -0.121908 0.992541 -6 0 0 0 1 1 -1.18746e-09 1.78236e-08 -6.35275e-21 -1.18746e-09 0.991162 0.132656 5.96045e-08 -1.78236e-08 -0.132656 0.991162 -6 0 0 0 1 1 -1.0992e-09 1.71513e-08 0 -1.0992e-09 0.991819 0.127653 -1.93715e-07 -1.71513e-08 -0.127653 0.991819 -6 0 0 0 1 1 -1.01431e-09 1.64783e-08 2.84217e-14 -1.01431e-09 0.992451 0.122644 -5.96046e-08 -1.64783e-08 -0.122644 0.992451 -6 0 0 0 1 1 -4.67487e-10 1.11984e-08 -5.68434e-14 -4.67492e-10 0.99652 0.0833468 0 -1.11984e-08 -0.0833468 0.99652 -6 0 0 0 1 1 -1.29781e-10 5.90412e-09 1.13687e-13 -1.29788e-10 0.999034 0.0439429 0 -5.90412e-09 -0.0439429 0.999034 -6 0 0 0 1 1 -3.64855e-12 9.9062e-10 1.13687e-13 -3.65521e-12 0.999973 0.00737282 -1.43051e-06 -9.9062e-10 -0.00737282 0.999973 -6 0 0 0 1 1 -5.72058e-11 -3.92042e-09 1.13687e-13 -5.72118e-11 0.999574 -0.0291788 9.53672e-07 3.92042e-09 0.0291788 0.999574 -6 0 0 0 1 1 -9.60665e-12 -1.60693e-09 0 -9.61318e-12 0.999928 -0.0119601 6.82121e-12 1.60693e-09 0.0119601 0.999928 -6 0 0 0 1 1 -1.85466e-12 7.06599e-10 0 -1.86132e-12 0.999986 0.00525893 3.8147e-06 -7.06599e-10 -0.00525893 0.999986 -6.00024 0 0 0 1 </float_array>
     <technique_common>
      <accessor source="#action_container-wind-line-1_00217-array" count="31" stride="16">
       <param name="TRANSFORM" type="float4x4"/>
      </accessor>
     </technique_common>
    </source>
    <sampler id="action_container-wind-line-1_00218">
     <input semantic="INPUT" source="#genericSource14"/>
     <input semantic="OUTPUT" source="#genericSource16"/>
    </sampler>
    <channel source="#action_container-wind-line-1_00218" target="wind-line-1_002_Bone_002/SID_3"/>
   </animation>
   <animation id="keyframedAnimations19">
    <source id="genericSource20">
     <float_array id="action_container-wind-line-1_00221-array" count="31">0 0.0333333 0.0666667 0.1 0.133333 0.166667 0.2 0.233333 0.266667 0.3 0.333333 0.366667 0.4 0.433333 0.466667 0.5 0.533333 0.566667 0.6 0.633333 0.666667 0.7 0.733333 0.766667 0.8 0.833333 0.866667 0.9 0.933333 0.966667 1 </float_array>
     <technique_common>
      <accessor source="#action_container-wind-line-1_00221-array" count="31" stride="1">
       <param name="TIME" type="float"/>
      </accessor>
     </technique_common>
    </source>
    <source id="genericSource22">
     <float_array id="action_container-wind-line-1_00223-array" count="496">1 -7.69241e-13 4.54522e-10 -2.27374e-13 -7.6837e-13 0.999994 0.00338291 -4.76837e-07 -4.54522e-10 -0.00338291 0.999994 -6 0 0 0 1 1 -1.08946e-12 5.4099e-10 2.84217e-14 -1.08882e-12 0.999992 0.00402646 0 -5.40989e-10 -0.00402646 0.999992 -6 0 0 0 1 1 -1.50579e-12 6.3606e-10 -2.84217e-14 -1.50537e-12 0.999989 0.00473405 0 -6.3606e-10 -0.00473405 0.999989 -6 0 0 0 1 1 -2.23596e-11 2.45107e-09 2.84217e-14 -2.23585e-11 0.999833 0.0182427 0 -2.45108e-09 -0.0182427 0.999833 -6.00001 0 0 0 1 1 -6.78118e-11 4.26818e-09 4.26326e-14 -6.78101e-11 0.999495 0.0317671 -2.38419e-07 -4.26818e-09 -0.0317671 0.999495 -6 0 0 0 1 1 -2.15129e-10 7.60014e-09 5.68432e-14 -2.15126e-10 0.998398 0.056566 0 -7.60014e-09 -0.056566 0.998398 -6 0 0 0 1 1 -4.4518e-10 1.09283e-08 -3.55271e-14 -4.45175e-10 0.996687 0.0813372 0 -1.09283e-08 -0.0813372 0.996687 -6 0 0 0 1 1 -7.57801e-10 1.42499e-08 6.57252e-14 -7.57795e-10 0.99436 0.106058 2.38419e-07 -1.42499e-08 -0.106058 0.99436 -6 0 0 0 1 1 -1.1527e-09 1.7562e-08 8.17124e-14 -1.1527e-09 0.991421 0.13071 2.38419e-07 -1.7562e-08 -0.13071 0.991421 -6 0 0 0 1 1 -7.33808e-10 1.40231e-08 0 -7.33801e-10 0.994538 0.104371 4.76837e-07 -1.40231e-08 -0.104371 0.994538 -6 0 0 0 1 1 -4.08051e-10 1.04634e-08 -5.68433e-14 -4.08045e-10 0.996963 0.0778769 2.38419e-07 -1.04634e-08 -0.0778769 0.996963 -6 0 0 0 1 1 -1.89982e-11 -2.25923e-09 4.26325e-14 -1.89931e-11 0.999859 -0.0168149 2.38419e-07 2.25923e-09 0.0168149 0.999859 -6 0 0 0 1 1 -8.35205e-10 -1.49578e-08 0 -8.35201e-10 0.993783 -0.111327 1.19209e-07 1.49578e-08 0.111327 0.993783 -6 0 0 0 1 1 -1.45236e-09 -1.97019e-08 7.10545e-15 -1.45236e-09 0.98919 -0.146637 -7.45056e-08 1.97019e-08 0.146637 0.98919 -6 0 0 0 1 1 -2.23532e-09 -2.44064e-08 2.84217e-14 -2.23532e-09 0.983363 -0.181651 1.19209e-07 2.44064e-08 0.181651 0.983363 -6 0 0 0 1 1 -2.06817e-09 -2.34836e-08 2.13163e-14 -2.06817e-09 0.984607 -0.174782 0 2.34836e-08 0.174782 0.984607 -6 0 0 0 1 1 -1.90728e-09 -2.25584e-08 -3.5527e-14 -1.90727e-09 0.985805 -0.167897 0 2.25584e-08 0.167897 0.985805 -6 0 0 0 1 1 -1.75273e-09 -2.16314e-08 7.10535e-15 -1.75273e-09 0.986955 -0.160997 0 2.16314e-08 0.160997 0.986955 -6 0 0 0 1 1 -1.6046e-09 -2.07029e-08 -1.42109e-14 -1.6046e-09 0.988057 -0.154086 0 2.07029e-08 0.154086 0.988057 -6 0 0 0 1 1 -1.1607e-09 -1.76225e-08 2.13163e-14 -1.1607e-09 0.991361 -0.13116 0 1.76225e-08 0.13116 0.991361 -6 0 0 0 1 1 -7.88088e-10 -1.45311e-08 7.10543e-15 -7.88089e-10 0.994134 -0.108151 -5.96046e-08 1.45311e-08 0.108151 0.994134 -6 0 0 0 1 1 -1.81408e-10 -6.97959e-09 0 -1.81409e-10 0.99865 -0.0519474 2.98023e-08 6.97959e-09 0.0519474 0.99865 -6 0 0 0 1 1 -1.2471e-12 5.794e-10 7.10542e-15 -1.2515e-12 0.999991 0.00431237 5.58798e-09 -5.794e-10 -0.00431237 0.999991 -6 0 0 0 1 1 -2.83165e-10 8.71846e-09 -3.55269e-15 -2.83168e-10 0.997892 0.0648894 -5.96045e-08 -8.71846e-09 -0.0648894 0.997892 -6 0 0 0 1 1 -1.05691e-09 1.68194e-08 0 -1.05691e-09 0.992134 0.125183 -1.19209e-07 -1.68194e-08 -0.125183 0.992134 -6 0 0 0 1 1 -6.00837e-10 1.26923e-08 2.84217e-14 -6.00842e-10 0.995528 0.0944659 1.19209e-07 -1.26923e-08 -0.0944659 0.995528 -6 0 0 0 1 1 -2.72598e-10 8.55444e-09 0 -2.72604e-10 0.997971 0.0636686 -2.38419e-07 -8.55444e-09 -0.0636686 0.997971 -6 0 0 0 1 1 -3.09725e-11 2.88492e-09 1.13687e-13 -3.09789e-11 0.999769 0.0214717 -9.53674e-07 -2.88492e-09 -0.0214717 0.999769 -6 0 0 0 1 1 -2.89543e-11 -2.78937e-09 -4.54746e-13 -2.89611e-11 0.999784 -0.0207606 9.53671e-07 2.78937e-09 0.0207606 0.999784 -5.99999 0 0 0 1 1 -6.14013e-11 -4.06163e-09 0 -6.14088e-11 0.999543 -0.0302297 -9.53672e-07 4.06163e-09 0.0302297 0.999543 -6 0 0 0 1 1 -1.05921e-10 -5.3341e-09 0 -1.05929e-10 0.999211 -0.0397004 0 5.33411e-09 0.0397004 0.999211 -6 0 0 0 1 </float_array>
     <technique_common>
      <accessor source="#action_container-wind-line-1_00223-array" count="31" stride="16">
       <param name="TRANSFORM" type="float4x4"/>
      </accessor>
     </technique_common>
    </source>
    <sampler id="action_container-wind-line-1_00224">
     <input semantic="INPUT" source="#genericSource20"/>
     <input semantic="OUTPUT" source="#genericSource22"/>
    </sampler>
    <channel source="#action_container-wind-line-1_00224" target="wind-line-1_002_Bone_003/SID_4"/>
   </animation>
  </animation>
 </library_animations>
 <library_materials>
  <material id="Material_003-material" name="wind_lines">
   <instance_effect url="#effect_Material_003-material"/>
  </material>
 </library_materials>
 <library_effects>
  <effect id="effect_Material_003-material">
   <profile_COMMON>
    <technique sid="common">
     <constant>
      <reflective>
       <color>0 0 0 1</color>
      </reflective>
      <transparent opaque="A_ONE">
       <color>1 1 1 1</color>
      </transparent>
      <transparency>
       <float>0.5</float>
      </transparency>
     </constant>
     <extra>
      <technique profile="SceneKit">
       <constant_ambient>
        <color>0.484529 0.484529 0.484529 1</color>
       </constant_ambient>
       <constant_diffuse>
        <color>0.572307 0.572307 0.572307 1</color>
       </constant_diffuse>
      </technique>
     </extra>
    </technique>
   </profile_COMMON>
   <extra>
    <technique profile="SceneKit">
     <double_sided>1</double_sided>
     <litPerPixel>0</litPerPixel>
     <ambient_diffuse_lock>0</ambient_diffuse_lock>
    </technique>
   </extra>
  </effect>
 </library_effects>
 <library_geometries>
  <geometry id="geometry25">
   <mesh>
    <source id="geometrySource26">
     <float_array id="ID27-array" count="150">0 0 1.04907e-06 1.84615 -0.111911 8.9292e-07 1.84615 0.111911 8.82435e-07 5.53846 0.268107 5.38204e-07 3.69231 0.203583 7.12327e-07 3.69231 -0.203583 7.40236e-07 5.53846 -0.268107 5.91568e-07 18.7413 0.265322 -6.30174e-07 15.7106 0.334586 -3.75881e-07 15.7106 -0.334586 -2.72905e-07 18.7413 -0.265322 -5.48516e-07 23.0258 0.0983018 -9.79036e-07 21.3144 0.180665 -8.42093e-07 21.3144 -0.180665 -7.86489e-07 23.0258 -0.0983018 -9.48781e-07 12.9769 0.370775 -1.42456e-07 11.0769 0.370817 -0 11.0769 -0.370817 1.37761e-07 12.9769 -0.370775 -0 11.0769 0.370817 -0 9.23077 0.355643 1.90909e-07 9.23077 -0.355643 2.93279e-07 11.0769 -0.370817 1.37761e-07 9.23077 0.355643 1.90909e-07 7.38461 0.325486 3.63532e-07 7.38461 -0.325486 4.43448e-07 9.23077 -0.355643 2.93279e-07 5.53846 0.268107 5.38204e-07 5.53846 -0.268107 5.91568e-07 7.38461 -0.325486 4.43448e-07 7.38461 0.325486 3.63532e-07 21.3144 0.180665 -8.42093e-07 18.7413 0.265322 -6.30174e-07 18.7413 -0.265322 -5.48516e-07 21.3144 -0.180665 -7.86489e-07 3.69231 0.203583 7.12327e-07 1.84615 0.111911 8.82435e-07 1.84615 -0.111911 8.9292e-07 3.69231 -0.203583 7.40236e-07 23.822 -0.0359151 -1.02799e-06 24 0 -1.04907e-06 23.822 0.0359151 -1.03904e-06 15.7106 0.334586 -3.75881e-07 12.9769 0.370775 -1.42456e-07 12.9769 -0.370775 -0 15.7106 -0.334586 -2.72905e-07 23.822 0.0359151 -1.03904e-06 23.0258 0.0983018 -9.79036e-07 23.0258 -0.0983018 -9.48781e-07 23.822 -0.0359151 -1.02799e-06 </float_array>
     <technique_common>
      <accessor source="#ID27-array" count="50" stride="3">
       <param name="X" type="float"/>
       <param name="Y" type="float"/>
       <param name="Z" type="float"/>
      </accessor>
     </technique_common>
    </source>
    <source id="geometrySource28">
     <float_array id="ID29-array" count="150">0 0 1 0 0 1 0 0 1 0 0 1 0 0 1 0 0 1 0 0 1 0 1.53885e-07 1 0 1.53885e-07 1 0 1.53885e-07 1 0 1.53885e-07 1 0 1.53886e-07 1 0 1.53885e-07 1 0 1.53885e-07 1 0 1.53886e-07 1 0 1.53885e-07 1 0 1.51453e-07 1 0 1.51453e-07 1 0 1.53885e-07 1 0 1.51453e-07 1 0 1.41469e-07 1 0 1.41469e-07 1 0 1.51453e-07 1 0 1.41469e-07 1 0 1.23202e-07 1 0 1.23202e-07 1 0 1.41469e-07 1 0 0 1 0 0 1 0 1.23202e-07 1 0 1.23202e-07 1 0 1.53885e-07 1 0 1.53885e-07 1 0 1.53885e-07 1 0 1.53885e-07 1 0 0 1 0 0 1 0 0 1 0 0 1 0 1.53885e-07 1 0 1.53884e-07 1 0 1.53885e-07 1 0 1.53885e-07 1 0 1.53885e-07 1 0 1.53885e-07 1 0 1.53885e-07 1 0 1.53885e-07 1 0 1.53886e-07 1 0 1.53886e-07 1 0 1.53885e-07 1 </float_array>
     <technique_common>
      <accessor source="#ID29-array" count="50" stride="3">
       <param name="X" type="float"/>
       <param name="Y" type="float"/>
       <param name="Z" type="float"/>
      </accessor>
     </technique_common>
    </source>
    <source id="geometrySource30">
     <float_array id="ID31-array" count="100">1 0 0.923077 0 0.923077 1 0.769231 1 0.846154 1 0.846154 0 0.769231 0 0.307692 1 0.384615 1 0.384615 0 0.307692 0 0.153846 1 0.230769 1 0.230769 0 0.153846 0 0.461538 1 0.538462 1 0.538462 0 0.461538 0 0.538462 1 0.615385 1 0.615385 0 0.538462 0 0.615385 1 0.692308 1 0.692308 0 0.615385 0 0.769231 1 0.769231 0 0.692308 0 0.692308 1 0.230769 1 0.307692 1 0.307692 0 0.230769 0 0.846154 1 0.923077 1 0.923077 0 0.846154 0 0.0769231 0 0 1 0.0769231 1 0.384615 1 0.461538 1 0.461538 0 0.384615 0 0.0769231 1 0.153846 1 0.153846 0 0.0769231 0 </float_array>
     <technique_common>
      <accessor source="#ID31-array" count="50" stride="2">
       <param name="S" type="float"/>
       <param name="T" type="float"/>
      </accessor>
     </technique_common>
    </source>
    <vertices id="geometrySource26-vertices">
     <input semantic="POSITION" source="#geometrySource26"/>
     <input semantic="NORMAL" source="#geometrySource28"/>
    </vertices>
    <triangles count="24" material="geometryElement32">
     <input semantic="VERTEX" offset="0" source="#geometrySource26-vertices"/>
     <input semantic="NORMAL" offset="0" source="#geometrySource28"/>
     <input semantic="TEXCOORD" offset="0" source="#geometrySource30" set="1"/>
     <p>0 1 2 3 4 5 3 5 6 7 8 9 7 9 10 11 12 13 11 13 14 15 16 17 15 17 18 19 20 21 19 21 22 23 24 25 23 25 26 27 28 29 27 29 30 31 32 33 31 33 34 35 36 37 35 37 38 39 40 41 42 43 44 42 44 45 46 47 48 46 48 49 </p>
    </triangles>
   </mesh>
  </geometry>
 </library_geometries>
 <library_controllers>
  <controller id="Plane_005" name="Plane_005">
   <skin source="#geometry25">
    <bind_shape_matrix>1 0 0 0 -0 2.960935e-08 0.9999999 0 0 -0.4967623 5.960464e-08 0 0 0 0 1 </bind_shape_matrix>
    <source id="ID33">
     <Name_array id="ID33-array" count="4">SID_5 SID_6 SID_7 SID_8 </Name_array>
     <technique_common>
      <accessor source="#ID33-array" count="4" stride="1">
       <param name="JOINT" type="name"/>
      </accessor>
     </technique_common>
    </source>
    <source id="SID_9">
     <float_array id="SID_9-array" count="64">1.78814e-07 0 1 0 0 1 0 0 -1 0 1.78814e-07 0 0 0 0 1 1.78814e-07 0 1 -1.072884e-06 0 1 0 0 -1 0 1.78814e-07 6 0 0 0 1 1.78814e-07 0 1 -2.145767e-06 0 1 0 0 -1 0 1.78814e-07 12 0 0 0 1 1.78814e-07 0 1 -3.218651e-06 0 1 0 0 -1 0 1.78814e-07 18 0 0 0 1 </float_array>
     <technique_common>
      <accessor source="#SID_9-array" count="4" stride="16">
       <param name="TRANSFORM" type="float4x4"/>
      </accessor>
     </technique_common>
    </source>
    <source id="SID_10">
     <float_array id="SID_10-array" count="74">1 1 1 0.975028 0.0249721 1 1 0.970494 0.0295057 0.990673 0.00932723 0.976522 0.0234784 0.975651 0.0243493 0.988558 0.0114422 1 1 1 1 0.914284 0.0857159 0.899495 0.100506 0.899369 0.100631 0.914351 0.0856495 0.899495 0.100506 1 1 0.899369 0.100631 1 0.945431 0.0545688 0.94734 0.0526601 1 0.975028 0.0249721 0.970494 0.0295057 0.94734 0.0526601 0.945431 0.0545688 1 0.990673 0.00932723 0.988558 0.0114422 1 1 1 1 1 1 1 1 0.976522 0.0234784 0.914284 0.0857159 0.914351 0.0856495 0.975651 0.0243493 1 1 1 1 </float_array>
     <technique_common>
      <accessor source="#SID_10-array" count="74" stride="1">
       <param name="WEIGHT" type="float"/>
      </accessor>
     </technique_common>
    </source>
    <joints>
     <input semantic="JOINT" source="#ID33"/>
     <input semantic="INV_BIND_MATRIX" source="#SID_9"/>
    </joints>
    <vertex_weights count="50">
     <input semantic="JOINT" source="#ID33" offset="0"/>
     <input semantic="WEIGHT" source="#SID_10" offset="1"/>
     <vcount>1 1 1 2 1 1 2 2 2 2 2 1 1 1 1 2 2 2 2 2 1 1 2 1 2 2 1 2 2 2 2 1 2 2 1 1 1 1 1 1 1 1 2 2 2 2 1 1 1 1 </vcount>
     <v>0 0 0 1 0 2 0 3 1 4 0 5 0 6 0 7 1 8 3 9 2 10 2 11 3 12 2 13 3 14 3 15 2 16 3 17 3 18 3 19 3 20 2 21 1 22 1 23 2 24 1 25 2 26 2 27 1 28 1 29 2 30 1 31 1 32 1 33 2 34 1 35 1 36 0 37 1 38 0 39 1 40 0 41 1 42 0 43 1 44 1 45 0 46 1 47 0 48 3 49 3 50 2 51 3 52 2 53 3 54 0 55 0 56 0 57 0 58 3 59 3 60 3 61 2 62 3 63 2 64 1 65 2 66 1 67 2 68 3 69 3 70 3 71 3 72 3 73 </v>
    </vertex_weights>
   </skin>
  </controller>
 </library_controllers>
 <library_visual_scenes>
  <visual_scene id="scene34">
   <node id="wind" name="wind">
    <matrix>1 0 0 -0.0001736283 0 1 0 0 0 0 1 0 0 0 0 1 </matrix>
   </node>
   <node id="turbulence" name="turbulence">
    <matrix>1 0 0 0 0 1 0 6.830035 0 0 1 13.02902 0 0 0 1 </matrix>
   </node>
   <node id="rain-drizzle" name="rain-drizzle">
    <matrix>1 0 0 0 0 1 0 5.866579 0 0 0.9997747 -1.225251e-07 0 0 0 1 </matrix>
   </node>
   <node id="rain-light" name="rain-light">
    <matrix>1 0 0 10 0 1 0 5.866579 0 0 0.9997745 -1.788139e-07 0 0 0 1 </matrix>
   </node>
   <node id="rain-normal" name="rain-normal">
    <matrix>1 0 0 20 0 1 0 5.866579 0 0 0.9997744 -1.225251e-07 0 0 0 1 </matrix>
   </node>
   <node id="rain-heavy" name="rain-heavy">
    <matrix>1 0 0 30 0 1 0 5.866579 0 0 0.9997743 -1.788139e-07 0 0 0 1 </matrix>
   </node>
   <node id="rain-splash" name="rain-splash">
    <matrix>0.9999999 0 0 10 0 0.9999999 0 0 0 0 0.9997743 -1.22525e-07 0 0 0 1 </matrix>
   </node>
   <node id="icepellets-light" name="icepellets-light">
    <matrix>1 0 0 10 0 1 0 5.866579 0 0 0.9997745 10 0 0 0 1 </matrix>
   </node>
   <node id="icepellets-normal" name="icepellets-normal">
    <matrix>1 0 0 20 0 1 0 5.866579 0 0 0.9997744 10 0 0 0 1 </matrix>
   </node>
   <node id="icepellets-heavy" name="icepellets-heavy">
    <matrix>1 0 0 30 0 1 0 5.866579 0 0 0.9997743 10 0 0 0 1 </matrix>
   </node>
   <node id="icepellets-splash" name="icepellets-splash">
    <matrix>0.9999999 0 0 10 0 0.9999999 0 0 0 0 0.9997743 10 0 0 0 1 </matrix>
   </node>
   <node id="snow-light" name="snow-light">
    <matrix>1 0 0 10 0 1 0 5.866579 0 0 0.9997745 20 0 0 0 1 </matrix>
   </node>
   <node id="snow-normal" name="snow-normal">
    <matrix>1 0 0 20 0 1 0 5.866579 0 0 0.9997744 20 0 0 0 1 </matrix>
   </node>
   <node id="snow-heavy" name="snow-heavy">
    <matrix>1 0 0 30 0 1 0 5.866579 0 0 0.9997743 20 0 0 0 1 </matrix>
   </node>
   <node id="snow-splash" name="snow-splash">
    <matrix>0.9999999 0 0 10 0 0.9999999 0 0 0 0 0.9997743 20 0 0 0 1 </matrix>
   </node>
   <node id="flurries-normal" name="flurries-normal">
    <matrix>1 0 0 10 0 1 0 5.866579 0 0 0.9997745 30 0 0 0 1 </matrix>
   </node>
   <node id="debris" name="debris"/>
   <node id="debris-turbulence" name="debris-turbulence">
    <matrix>1 0 0 0 0 1 0 6.830035 0 0 1 13.02902 0 0 0 1 </matrix>
    <extra>
     <technique profile="SceneKit">
      <visibility>0</visibility>
     </technique>
    </extra>
   </node>
   <node id="wind-line-1_002" name="wind-line-1">
    <node id="wind-line-1_002_Bone" name="Bone" sid="SID_5" type="JOINT">
     <matrix sid="SID_1">3.576278e-07 0 -0.9999998 0 -0 1 0 0 0.9999998 0 3.576278e-07 0 0 0 0 1 </matrix>
     <node id="wind-line-1_002_Bone_001" name="Bone-001" sid="SID_6" type="JOINT">
      <matrix sid="SID_2">1 0 0 0 0 1 0 0 0 0 1 -6 0 0 0 1 </matrix>
      <node id="wind-line-1_002_Bone_002" name="Bone-002" sid="SID_7" type="JOINT">
       <matrix sid="SID_3">1 0 0 0 0 1 0 0 0 0 1 -6 0 0 0 1 </matrix>
       <node id="wind-line-1_002_Bone_003" name="Bone-003" sid="SID_8" type="JOINT">
        <matrix sid="SID_4">1 0 0 0 0 1 0 0 0 0 1 -6 0 0 0 1 </matrix>
       </node>
      </node>
     </node>
    </node>
    <node id="line-1_002" name="line-1">
     <instance_controller url="#Plane_005">
      <skeleton>#wind-line-1_002_Bone</skeleton>
      <bind_material>
       <technique_common>
        <instance_material symbol="geometryElement32" target="#Material_003-material"/>
       </technique_common>
      </bind_material>
     </instance_controller>
    </node>
   </node>
  </visual_scene>
 </library_visual_scenes>
 <scene>
  <instance_visual_scene url="#scene34"/>
 </scene>
</COLLADA>
