<?xml version="1.0" encoding="UTF-8"?>
<COLLADA xmlns="http://www.collada.org/2005/11/COLLADASchema" version="1.4.1">
 <asset>
  <contributor>
   <authoring_tool>SceneKit Collada Exporter v1.0</authoring_tool>
  </contributor>
  <created>2026-04-02T01:34:07Z</created>
  <modified>2026-04-02T01:34:07Z</modified>
  <unit meter="1.000000"/>
  <up_axis>Y_UP</up_axis>
 </asset>
 <library_visual_scenes>
  <visual_scene id="scene1">
   <node id="color-day" name="color-day">
    <matrix>1 0 0 19.36735 0 0.1 0 5.866579 0 0 0.9997744 30.97054 0 0 0 1 </matrix>
   </node>
   <node id="color-night" name="color-night">
    <matrix>1 0 0 27.31887 0 0.1 0 5.866579 0 0 0.9997744 30.97054 0 0 0 1 </matrix>
   </node>
   <node id="debris-color-day" name="debris-color-day"/>
   <node id="debris-color-night" name="debris-color-night"/>
   <node id="rain-color-day" name="rain-color-day">
    <matrix>1 0 0 19.36735 0 0.1 0 5.866579 0 0 0.9997744 30.97054 0 0 0 1 </matrix>
   </node>
   <node id="rain-color-night" name="rain-color-night">
    <matrix>1 0 0 27.31887 0 0.1 0 5.866579 0 0 0.9997744 30.97054 0 0 0 1 </matrix>
   </node>
   <node id="snow-color-day" name="snow-color-day">
    <matrix>1 0 0 19.36735 0 0.1 0 5.866579 0 0 0.9997744 30.97054 0 0 0 1 </matrix>
   </node>
   <node id="snow-color-night" name="snow-color-night">
    <matrix>1 0 0 27.31887 0 0.1 0 5.866579 0 0 0.9997744 30.97054 0 0 0 1 </matrix>
   </node>
  </visual_scene>
 </library_visual_scenes>
 <scene>
  <instance_visual_scene url="#scene1"/>
 </scene>
</COLLADA>
